<svg width="25" height="25" viewBox="0 0 25 25" fill="none" xmlns="http://www.w3.org/2000/svg">
<path fill-rule="evenodd" clip-rule="evenodd" d="M13.7477 0.584681C13.6051 0.438351 13.4346 0.322058 13.2462 0.242655C13.0579 0.163252 12.8556 0.122345 12.6512 0.122345C12.4469 0.122345 12.2446 0.163252 12.0563 0.242655C11.8679 0.322058 11.6974 0.438351 11.5547 0.584681L10.5777 1.58776C10.3854 1.78535 10.1433 1.92735 9.87699 1.99878C9.61068 2.07021 9.33003 2.06842 9.06465 1.99359L7.717 1.61227C7.52019 1.55693 7.31429 1.54157 7.11145 1.56708C6.90861 1.59259 6.71292 1.65845 6.53594 1.76079C6.35896 1.86312 6.20426 1.99986 6.08096 2.16293C5.95766 2.32601 5.86826 2.51212 5.81804 2.7103L5.47193 4.06714C5.40408 4.33424 5.26541 4.57809 5.07053 4.77296C4.87566 4.96783 4.63182 5.1065 4.36471 5.17436L3.00787 5.51893C2.8097 5.56915 2.62359 5.65855 2.46051 5.78185C2.29744 5.90515 2.1607 6.05985 2.05836 6.23683C1.95603 6.41382 1.89016 6.6095 1.86465 6.81234C1.83915 7.01518 1.85451 7.22108 1.90984 7.41789L2.29117 8.76708C2.3657 9.03223 2.36734 9.31258 2.29592 9.57859C2.2245 9.8446 2.08266 10.0864 1.88534 10.2786L0.882258 11.2572C0.735928 11.3998 0.619635 11.5704 0.540232 11.7587C0.460829 11.947 0.419922 12.1493 0.419922 12.3537C0.419922 12.558 0.460829 12.7603 0.540232 12.9487C0.619635 13.137 0.735928 13.3075 0.882258 13.4502L1.88534 14.4287C2.08266 14.6209 2.2245 14.8627 2.29592 15.1287C2.36734 15.3948 2.3657 15.6751 2.29117 15.9403L1.90984 17.2879C1.85451 17.4847 1.83915 17.6906 1.86465 17.8935C1.89016 18.0963 1.95603 18.292 2.05836 18.469C2.1607 18.646 2.29744 18.8007 2.46051 18.924C2.62359 19.0473 2.8097 19.1367 3.00787 19.1869L4.36471 19.533C4.63182 19.6008 4.87566 19.7395 5.07053 19.9344C5.26541 20.1292 5.40408 20.3731 5.47193 20.6402L5.8165 21.997C5.8669 22.1951 5.95642 22.381 6.07979 22.5439C6.20316 22.7068 6.35788 22.8434 6.53485 22.9456C6.71181 23.0478 6.90744 23.1135 7.1102 23.1389C7.31296 23.1643 7.51876 23.1489 7.71547 23.0935L9.06465 22.7137C9.33003 22.6389 9.61068 22.6371 9.87699 22.7086C10.1433 22.78 10.3854 22.922 10.5777 23.1196L11.5547 24.1227C11.6974 24.269 11.8679 24.3853 12.0563 24.4647C12.2446 24.5441 12.4469 24.585 12.6512 24.585C12.8556 24.585 13.0579 24.5441 13.2462 24.4647C13.4346 24.3853 13.6051 24.269 13.7477 24.1227L14.7263 23.1196C14.9185 22.9223 15.1603 22.7804 15.4263 22.709C15.6923 22.6376 15.9727 22.6392 16.2378 22.7137L17.5855 23.0935C17.7822 23.1489 17.988 23.1643 18.1908 23.1389C18.3935 23.1135 18.5891 23.0478 18.7661 22.9456C18.9431 22.8434 19.0978 22.7068 19.2212 22.5439C19.3445 22.381 19.4341 22.1951 19.4845 21.997L19.8306 20.6402C19.8984 20.3731 20.0371 20.1292 20.232 19.9344C20.4268 19.7395 20.6707 19.6008 20.9378 19.533L22.2946 19.1884C22.4927 19.138 22.6786 19.0485 22.8415 18.9251C23.0044 18.8018 23.141 18.647 23.2432 18.4701C23.3453 18.2931 23.4111 18.0975 23.4365 17.8947C23.4619 17.6919 23.4465 17.4862 23.3911 17.2894L23.0113 15.9403C22.9365 15.6749 22.9347 15.3942 23.0061 15.1279C23.0776 14.8616 23.2196 14.6195 23.4172 14.4272L24.4202 13.4502C24.5666 13.3075 24.6829 13.137 24.7623 12.9487C24.8417 12.7603 24.8826 12.558 24.8826 12.3537C24.8826 12.1493 24.8417 11.947 24.7623 11.7587C24.6829 11.5704 24.5666 11.3998 24.4202 11.2572L23.4172 10.2801C23.2196 10.0878 23.0776 9.84573 23.0061 9.57942C22.9347 9.31311 22.9365 9.03245 23.0113 8.76708L23.3911 7.41942C23.4465 7.22272 23.4619 7.01692 23.4365 6.81416C23.4111 6.61139 23.3453 6.41577 23.2432 6.2388C23.141 6.06184 23.0044 5.90711 22.8415 5.78374C22.6786 5.66037 22.4927 5.57085 22.2946 5.52046L20.9378 5.17436C20.6707 5.1065 20.4268 4.96783 20.232 4.77296C20.0371 4.57809 19.8984 4.33424 19.8306 4.06714L19.486 2.7103C19.4358 2.51212 19.3464 2.32601 19.2231 2.16293C19.0998 1.99986 18.9451 1.86312 18.7681 1.76079C18.5911 1.65845 18.3954 1.59259 18.1926 1.56708C17.9897 1.54157 17.7838 1.55693 17.587 1.61227L16.2378 1.99359C15.9725 2.06842 15.6918 2.07021 15.4255 1.99878C15.1592 1.92735 14.9171 1.78535 14.7248 1.58776L13.7477 0.584681ZM11.1198 6.22798H14.1827V18.4794H11.1198V9.29082H9.5884V7.7594L11.1198 6.22798Z" fill="#317EF4"/>
</svg>
