<svg width="132" height="99" viewBox="0 0 132 99" fill="none" xmlns="http://www.w3.org/2000/svg">
<g filter="url(#filter0_dd_1104_22948)">
<g clip-path="url(#clip0_1104_22948)">
<path d="M113.9 3H18.7C12.5144 3 7.5 8.01441 7.5 14.2V75.8C7.5 81.9856 12.5144 87 18.7 87H113.9C120.086 87 125.1 81.9856 125.1 75.8V14.2C125.1 8.01441 120.086 3 113.9 3Z" fill="white"/>
<path fill-rule="evenodd" clip-rule="evenodd" d="M7.5 59H125.1V87H7.5V59ZM7.5 3H125.1V31H7.5V3Z" fill="#3ECBF8"/>
<path d="M66.3001 53.3999C70.9393 53.3999 74.7001 49.6391 74.7001 44.9999C74.7001 40.3607 70.9393 36.5999 66.3001 36.5999C61.6609 36.5999 57.9001 40.3607 57.9001 44.9999C57.9001 49.6391 61.6609 53.3999 66.3001 53.3999Z" fill="#FFDA2C"/>
</g>
</g>
<defs>
<filter id="filter0_dd_1104_22948" x="0.642857" y="0.714285" width="131.314" height="97.7143" filterUnits="userSpaceOnUse" color-interpolation-filters="sRGB">
<feFlood flood-opacity="0" result="BackgroundImageFix"/>
<feColorMatrix in="SourceAlpha" type="matrix" values="0 0 0 0 0 0 0 0 0 0 0 0 0 0 0 0 0 0 127 0" result="hardAlpha"/>
<feOffset dy="4.57143"/>
<feGaussianBlur stdDeviation="3.42857"/>
<feComposite in2="hardAlpha" operator="out"/>
<feColorMatrix type="matrix" values="0 0 0 0 0.258824 0 0 0 0 0.278431 0 0 0 0 0.298039 0 0 0 0.08 0"/>
<feBlend mode="normal" in2="BackgroundImageFix" result="effect1_dropShadow_1104_22948"/>
<feColorMatrix in="SourceAlpha" type="matrix" values="0 0 0 0 0 0 0 0 0 0 0 0 0 0 0 0 0 0 127 0" result="hardAlpha"/>
<feOffset/>
<feGaussianBlur stdDeviation="0.285714"/>
<feComposite in2="hardAlpha" operator="out"/>
<feColorMatrix type="matrix" values="0 0 0 0 0.258824 0 0 0 0 0.278431 0 0 0 0 0.298039 0 0 0 0.32 0"/>
<feBlend mode="normal" in2="effect1_dropShadow_1104_22948" result="effect2_dropShadow_1104_22948"/>
<feBlend mode="normal" in="SourceGraphic" in2="effect2_dropShadow_1104_22948" result="shape"/>
</filter>
<clipPath id="clip0_1104_22948">
<rect x="7.5" y="3" width="117.6" height="84" rx="9.14286" fill="white"/>
</clipPath>
</defs>
</svg>
