<svg version="1.2" xmlns="http://www.w3.org/2000/svg" viewBox="0 0 120 120" width="120" height="120"><defs><linearGradient id="P" gradientUnits="userSpaceOnUse"/><radialGradient id="g1" cx="0" cy="0" r="1" href="#P" gradientTransform="matrix(69.842,0,0,69.842,51.214,39.622)"><stop stop-color="#494949"/><stop offset="1"/></radialGradient><radialGradient id="g2" cx="0" cy="0" r="1" href="#P" gradientTransform="matrix(62.522,0,0,62.522,54.2,44.959)"><stop offset=".12" stop-color="#fff"/><stop offset="1" stop-color="#757575"/></radialGradient><linearGradient id="g3" x2="1" href="#P" gradientTransform="matrix(.157,0,0,.085,70.312,19.645)"><stop stop-color="#fff"/><stop offset="1" stop-color="#fff"/></linearGradient><linearGradient id="g4" x2="1" href="#P" gradientTransform="matrix(.155,0,0,.17,20.578,45.007)"><stop stop-color="#fff"/><stop offset="1" stop-color="#fff"/></linearGradient><linearGradient id="g5" x2="1" href="#P" gradientTransform="matrix(.156,0,0,.165,53.452,71.727)"><stop stop-color="#fff"/><stop offset="1" stop-color="#fff"/></linearGradient><linearGradient id="g6" x2="1" href="#P" gradientTransform="matrix(.156,0,0,.489,102.41,77.691)"><stop stop-color="#fff"/><stop offset="1" stop-color="#fff"/></linearGradient><linearGradient id="g7" x2="1" href="#P" gradientTransform="matrix(.156,0,0,.195,21.975,90.382)"><stop stop-color="#fff"/><stop offset="1" stop-color="#fff"/></linearGradient><linearGradient id="g8" x2="1" href="#P" gradientTransform="matrix(.157,0,0,.068,60.966,109.397)"><stop stop-color="#fff"/><stop offset="1" stop-color="#fff"/></linearGradient><linearGradient id="g9" x2="1" href="#P" gradientTransform="matrix(.157,0,0,.042,32.94,18.933)"><stop/><stop offset="1"/></linearGradient><linearGradient id="g10" x2="1" href="#P" gradientTransform="matrix(.151,0,0,.668,13.857,76.514)"><stop/><stop offset="1"/></linearGradient><linearGradient id="g11" x2="1" href="#P" gradientTransform="matrix(.155,0,0,.182,82.933,57.21)"><stop/><stop offset="1"/></linearGradient><linearGradient id="g12" x2="1" href="#P" gradientTransform="matrix(.155,0,0,.202,24.711,73.038)"><stop/><stop offset="1"/></linearGradient><linearGradient id="g13" x2="1" href="#P" gradientTransform="matrix(.157,0,0,.177,73.777,93.493)"><stop/><stop offset="1"/></linearGradient><linearGradient id="g14" x2="1" href="#P" gradientTransform="matrix(.157,0,0,.132,39.072,96.841)"><stop/><stop offset="1"/></linearGradient><linearGradient id="g15" x2="1" href="#P" gradientTransform="matrix(.156,0,0,.126,43.731,40.782)"><stop/><stop offset="1"/></linearGradient></defs><style>.a{fill:url(#g1)}.b{fill:url(#g2)}.c{opacity:.8;mix-blend-mode:soft-light;fill:url(#g3)}.d{mix-blend-mode:soft-light;fill:url(#g4)}.e{opacity:.8;mix-blend-mode:soft-light;fill:url(#g5)}.f{mix-blend-mode:soft-light;fill:url(#g6)}.g{opacity:.7;mix-blend-mode:soft-light;fill:url(#g7)}.h{opacity:.7;mix-blend-mode:soft-light;fill:url(#g8)}.i{opacity:0;mix-blend-mode:multiply;fill:url(#g9)}.j{opacity:0;mix-blend-mode:multiply;fill:url(#g10)}.k{opacity:.1;mix-blend-mode:multiply;fill:url(#g11)}.l{opacity:.1;mix-blend-mode:multiply;fill:url(#g12)}.m{opacity:.1;mix-blend-mode:multiply;fill:url(#g13)}.n{opacity:.1;mix-blend-mode:multiply;fill:url(#g14)}.o{opacity:.1;mix-blend-mode:multiply;fill:url(#g15)}</style><path class="a" d="m60 110c-27.6 0-50-22.4-50-50 0-27.7 22.4-50 50-50 27.6 0 50 22.3 50 50 0 27.6-22.4 50-50 50z"/><path fill-rule="evenodd" class="b" d="m28.7 21c11.7-9.3 27.3-13.3 42.6-9.7-4.1-0.1-6.3 1.4-8.4 3.5-0.4 0.5-1.3 0.8-2 0.8-5.7-0.1-10.7 0.9-16.7 4.7-0.6 0.3-1.6 0.4-2.2 0.2-4.3-1.4-8.5-1.5-13.3 0.5zm-10 46.2c0.1 0.6-0.2 1.5-0.6 2-2.5 3.1-4.2 7.2-3.9 10.9-4.8-11.1-5.7-23.9-1.5-36.3 1.3-3.7 3-7.2 5-10.4-1.6 5-0.5 9.7 2.3 14 0.4 0.5 0.5 1.5 0.3 2.1-2.1 6.1-2.6 11.2-1.6 17.7zm69.7-48.4c11.7 8.1 19.3 20.7 21.2 34.6-0.9-3.1-2.6-5.7-4.8-7.1-0.6-0.3-1.2-1-1.4-1.7-1.8-5.6-4.4-9.5-8.9-14.4-0.5-0.5-0.8-1.4-0.9-2.1-0.3-3.4-2.2-6.9-5.2-9.3zm19.8 54.7q-0.4 1.3-0.9 2.7c-4.3 12.5-13.1 22.3-24 28 2.8-2.1 4.7-5 5.8-7.7 0.3-0.6 0.9-1.5 1.4-1.8 4.7-3.5 7.3-7.1 9.9-13.3 0.2-0.6 0.9-1.3 1.5-1.6 2.3-1.2 5-3.3 6.3-6.3zm-47.8 36.5c-5.5 0-11.1-0.8-16.6-2.7-7.7-2.6-14.3-6.9-19.6-12.4 3.6 2.7 8.3 3.7 12.4 2.9 0.7-0.1 1.6 0.1 2.2 0.4 5.2 3.5 9.7 5.4 15.7 6.3 0.6 0.1 1.3 0.7 1.6 1.3 0.9 1.7 2.4 3.5 4.3 4.2zm13.4-68.1c1.8-4.1 3.1-8.4 3.9-12.8 0.2-0.8 0.9-1.5 1.6-1.6q2-0.3 4-0.3c2.6 0 5.4 0.4 8.1 1.3 0.7 0.2 1.6 0.8 2.1 1.3 4.3 4.6 7.5 9.8 9.7 16.1 0.2 0.6 0.3 1.7 0.3 2.4-0.4 4-1.8 8.1-4.3 12.6-0.3 0.6-1.2 1.1-1.9 1.1l-12.2-0.4c-0.7 0-1.6-0.6-1.9-1.3-2.4-5.4-5.5-10.9-9.2-16.1-0.4-0.6-0.5-1.6-0.2-2.3zm-41.3 37.2c-4.7-2.1-8.8-5.1-12.1-9.1-0.5-0.5-1-1.5-1.1-2.2-1-5.8-0.4-11.9 1.7-18.7 0.2-0.7 0.8-1.6 1.3-2.1 4.1-4 8.5-6.8 13.4-8.8q0.3-0.1 0.8-0.1c0.6 0 1.2 0.2 1.5 0.5l11.9 9.6c0.6 0.5 1 1.4 0.9 2.2-0.9 6.2-1.4 12.6-1.7 19.1 0 0.8-0.5 1.7-1.2 2l-13 7.5c-0.4 0.2-0.9 0.3-1.4 0.3q-0.6 0-1-0.2zm54.6 16.8q-2.6 0.7-5.2 0.7c-2.4 0-4.8-0.4-7.4-1.2-0.7-0.2-1.4-1-1.5-1.8l-2.4-13.1c-0.1-0.7 0.2-1.7 0.7-2.2 4.7-5 8.5-9.7 11.7-14.6 0.4-0.6 1.3-1.1 2-1.1l12.1 0.5c0.8 0 1.5 0.6 1.8 1.4 1.2 4.5 1.8 8.8 1.9 13.3 0 0.7-0.2 1.8-0.5 2.4-2.7 6.2-6.4 11.1-10.9 14.6-0.6 0.4-1.6 0.9-2.3 1.1zm-15.1-2c0.1 0.8-0.2 1.8-0.6 2.4-3.3 3.6-7.9 6.2-13.6 7.7-0.4 0.1-0.9 0.1-1.5 0.1q-0.6 0-1 0c-6.5-1.2-12-3.4-16.7-6.6-0.6-0.4-1.2-1.3-1.5-1.9-1.7-4.6-2.6-9.2-2.8-13.7 0-0.8 0.5-1.7 1.1-2.1l13-7.3c0.3-0.2 0.7-0.3 1.2-0.3 0.4 0 0.8 0.1 1.2 0.3 5 2.8 10.7 5 17.2 6.7 0.8 0.1 1.5 0.9 1.6 1.6zm-8.1-77.1c5 2.4 9.2 5.7 12.3 9.6 0.4 0.6 0.7 1.6 0.6 2.4-0.8 4.2-2.1 8.3-4 12.7-0.3 0.7-1.1 1.3-1.9 1.4-7 1-12.7 2.6-18 4.8q-0.4 0.2-0.8 0.2c-0.6 0-1.2-0.2-1.5-0.5l-11.9-9.6c-0.6-0.5-1-1.5-0.8-2.2 0.7-4.5 2.2-8.9 4.5-12.9 0.4-0.6 1.1-1.4 1.7-1.8 5.6-3.1 11.2-4.7 16.8-4.7q0.5 0 0.9 0c0.6 0 1.5 0.2 2.1 0.6z"/><path fill-rule="evenodd" class="c" d="m75.7 24.6q-0.3-0.3-0.5-0.6c-1.1-1.1-2-2-3-2.8l-2.6-2q-0.8-0.5-1.6-1c-0.6-0.4-1.3-0.7-2-1.1-0.6-0.3-1.3-0.7-1.3-1 0-0.2 0.4-0.8 1.1-1.4 0.6-0.5 1.4-1 2.2-1.3 0.9-0.4 2.1-0.5 2.9-0.5q0.2 0 0.4 0 1.4 0.2 2.9 0.6c1.9 0.5 3.8 1.4 5.9 2.2 1.6 0.7 4.4 2.1 6.6 3.7q1 0.8 2 1.8 1 1 1.7 2.3 0.9 1.6 1.1 2.9 0.1 0.6 0.1 1.1c-1 0.1-2.1-0.2-3.1-0.4-1-0.3-2-0.5-3.2-0.6q-0.9-0.1-1.9-0.1-1 0-2.1 0.1-0.7 0-1.2 0.1c-0.5 0.1-1 0.1-1.5 0.1-1.2-0.1-2.1-1.2-2.9-2.1zm-1.5-11.1c0.3 1 1.1 2.2 1.7 3.4-0.6-1.2-1.4-2.4-1.7-3.4zm1.7 3.4c4.4 1 8.6 2.4 12.8 4.3-4.2-1.9-8.4-3.3-12.8-4.3z"/><path fill-rule="evenodd" class="d" d="m23.7 44.4c-0.6 0.6-1.7 1.7-2.3 1.7-0.4 0-0.8-0.8-0.9-1.1-0.8-1.4-1.3-3.1-1.7-4.6-0.5-2.4-0.5-4.7 0.1-6.4 0.2-0.7 0.9-1.5 1.5-2.4q0.8-0.9 1.5-1.9c0.9-1.1 1.7-2 2.6-3 0.6-0.6 1.2-1.3 2-2.1q0.1-0.1 0.2-0.2c0.5-0.5 1.1-1.1 1.7-1.6 0.3-0.3 0.6-0.5 0.9-0.7 1.1-0.5 2.7-0.6 4.2-0.8q0.2 0 0.4 0c0.3 0 1.2-0.1 2.4-0.1 1.7 0 2.8 0.1 3.6 0.3 1 0.3 1.3 0.5 1.4 0.7 0.1 0.4-0.4 1.2-0.7 2q-0.3 0.4-0.5 0.9c-1.3 2.7-2.5 5.6-3 8.6-0.1 0.6-0.2 1.3-0.3 1.9-0.2 0.6-0.6 1-1.2 1.3-0.8 0.6-1.7 0.9-2.6 1.3-3 1.4-5.8 3.2-8.4 5.3q-0.3 0.3-0.7 0.7-0.1 0.1-0.2 0.2zm13.4-10.7c-0.9 0.3-1.5-0.4-2.7 0.6 0.9-0.2 1.8-0.3 2.7-0.6zm2.8-12.2c-0.1 1.1-0.8 2.2-1.5 3.2 0.7-1 1.4-2.1 1.5-3.2z"/><path class="e" d="m51.2 57.7q0 1-0.1 1.8 0 0.1 0 0.2c-0.1 1.5-0.3 3.1-0.4 4.9q0 0.6-0.1 1.2c-0.1 1.5-0.2 3 0.1 3.9 0.3 0.9 1.4 1.5 2.6 2 1 0.5 2 1 3 1.4-3.3-2.4-1.9-6-1.6-9.5 0.4-3.9 0.1-7.9 0.2-11.8-1 0.2-2.1 0.3-3.1 0.6-0.3 1.7-0.4 3.7-0.6 5.3zm1.2-7.7c-0.3 0.5-0.5 1.4-0.6 2.4 1-0.3 2.1-0.4 3.1-0.6 0.1-1.5 0.1-3.2 1.2-4.3-0.9 0.3-1.8 0.7-2.5 1.2-0.6 0.4-1 0.8-1.2 1.3zm2.3 13.6c-0.3 3.5-1.7 7.1 1.6 9.5 2.5 1.3 4.7 2.1 7.6 3q0.5 0.1 1.1 0.3c1.2 0.5 2.4 0.9 3.5 0.9q0.4 0 0.7-0.1c0.6-0.1 1.2-0.6 1.8-1.2q0.8-3.3 2.1-6.4c0.8-2.3 2.3-4.8 2.4-7.4 0-4-2.4-8.3-3.3-12.2-1 0.1-1.9 0.2-2.8 0.3q-7.3 0.7-14.5 1.5c-0.1 3.9 0.2 7.9-0.2 11.8zm0.2-11.8q7.2-0.8 14.5-1.5c0.9-0.1 1.8-0.2 2.8-0.3-0.5-1.9-0.6-3.9-0.8-5.9q-0.5 0-1 0c-3.3 0.2-6.2 1-9.5 2q-0.4 0.1-0.7 0.2-0.6 0.2-1.2 0.3c-0.9 0.3-1.9 0.6-2.9 0.9-1.1 1.1-1.1 2.8-1.2 4.3zm20.6 10.4c-0.1 2.6-1.6 5.1-2.4 7.4q-1.3 3.1-2.1 6.4 0.5-0.6 1.1-1.3 0.3-0.3 0.6-0.7 1.2-1.3 2.2-2.6c1.7-1.9 3.1-3.7 4.5-5.6q0.3-0.4 0.6-0.9c0.9-1.2 1.8-2.3 1.8-3.5 0.1-1.1-0.5-2.2-1.2-3.5q-0.3-0.6-0.6-1.2c-0.9-1.7-1.7-3.1-2.4-4.4-1.1-0.8-2.3-2.2-3.7-2.4q-0.9 0-1.7 0.1c0.9 3.9 3.3 8.2 3.3 12.2zm-3.3-12.2q0.8-0.1 1.7-0.1c1.4 0.2 2.6 1.6 3.7 2.4-0.8-1.4-1.7-2.7-2.7-4.3q-0.4-0.5-0.7-1.1c-0.6-1-1.4-2.3-2.1-2.6q-0.2-0.1-0.7-0.2c0.2 2 0.3 4 0.8 5.9z"/><path class="f" d="m100.6 65.8q0.2 0.6 0.4 1.3c0.6 3 1 5.5 1.2 7.7q0 0.6 0 1.1c-0.1 0.8-0.1 1.4 0.2 1.8q0.5-0.2 1-0.4c-0.8-1.5-0.3-4.7-0.5-6.4-0.4-2.5-1.2-5-1.4-7.6-0.4 0.2-0.9 0.3-1.3 0.4 0.1 0.7 0.2 1.4 0.4 2.1zm3.7-13.4c-0.7 2.7-1.6 4.9-2.5 6.7q-0.3 0.7-0.6 1.2c-0.3 0.6-0.6 1.2-0.8 1.8-0.2 0.6-0.2 1.1-0.2 1.6 0.4-0.1 0.9-0.2 1.3-0.4-0.1-2.2 1.2-4.3 1.9-6.3 0.7-2.5 1.1-4.8 1.4-7.3-0.1 0.2-0.1 0.5-0.1 0.6-0.2 0.7-0.3 1.4-0.4 2.1zm-1.4 18.5c0.2 1.7-0.3 4.9 0.5 6.4 1.7-1 2.9-2.8 4.2-4.2 0.6-2.4 1.4-6.8 1.7-11-2.7-0.3-5.3 0.4-7.8 1.2 0.2 2.6 1 5.1 1.4 7.6zm0.5-13.9c-0.7 2-2 4.1-1.9 6.3 2.5-0.8 5.1-1.5 7.8-1.2q0-1.6 0-3.1 0-0.7-0.1-1.3c0-1.4 0-2.8-0.3-3.7-0.2-0.8-1-2-1.7-2.9-1.3-1.6-1.8-1.9-2.1-1.9-0.1 0-0.2 0.3-0.3 0.5-0.3 2.5-0.7 4.8-1.4 7.3z"/><path class="g" d="m15.2 79.4c1.9 4.1 4.2 7.8 6.8 11q1.3 1.6 2.7 3 0.2 0.1 0.3 0.1c-1.4-3.7-3.1-7.3-4.3-11.2q-0.8-2.5-1.5-5.1c0-1.7 0.2-3.3 0.2-5-1.5-0.5-2.8 2.4-3.4 3.3-0.4 1.2-0.7 2.4-0.8 3.9zm0.8-3.9c0.6-0.9 1.9-3.8 3.4-3.3q-0.1-0.9-0.1-1.8c-0.2-0.1-0.4-0.1-0.6 0.1-1.2 0.9-1.7 2.5-2.3 3.9q-0.2 0.5-0.4 1.1zm3.2 1.7q0.7 2.6 1.5 5.1c1.2 3.9 2.9 7.5 4.3 11.2q0.9 0.4 1.8 0.8c1 0.4 2 0.9 3.2 1.2 0.8 0.2 2.2 0.4 3.5 0.4 1.3 0 1.9-0.3 2.1-0.5 0.1-0.4-0.1-1.2-0.4-1.9q-0.2-0.5-0.3-1c-0.8-2.5-1.3-4.8-1.6-7.8q-0.1-0.7-0.2-1.5c0-1-0.1-1.9-0.3-2.5-0.2-0.3-0.5-0.7-1-1-2.1-0.8-4.1-1.7-6-2.9-2.1-1.2-4.2-3.8-6.4-4.6 0 1.7-0.2 3.3-0.2 5zm0.2-5c2.2 0.8 4.3 3.4 6.4 4.6 1.9 1.2 3.9 2.1 6 2.9q-0.6-0.3-1.4-0.7-0.5-0.3-1-0.5c-3.4-1.9-5.1-3.4-7.4-5.6q-0.3-0.3-0.7-0.7c-0.6-0.7-1.4-1.5-2-1.8q0 0.9 0.1 1.8z"/><path class="h" d="m58.9 105.5c-0.7 0.1-0.8 0.2-0.8 0.6-0.1 0.8 2.1 3.2 2.8 3.4 0.7 0.2 1.5 0 2.2-0.1q0.4 0 0.9-0.1c3.1-0.2 5.9-0.7 8.8-1.5-0.1-3.6-0.8-5.9 0.5-9.3-0.7-0.9-4.3 2.7-5.1 3.2-2.6 1.6-5.4 2.7-8.4 3.5q-0.4 0.1-0.9 0.3zm0.9-0.3c3-0.8 5.8-1.9 8.4-3.5 0.8-0.5 4.4-4.1 5.1-3.2q0.3-0.7 0.5-1.4-0.2 0-0.4 0c-0.7 0-1.6 0.9-2.4 1.8-0.4 0.4-0.8 0.8-1.2 1.2-1.1 0.9-2.4 1.7-3.8 2.5-1.4 0.8-3.4 1.6-5.2 2.2q-0.5 0.2-1 0.4zm13 2.6c1.6-0.5 3.3-1 5.1-1.7q0.6-0.3 1.2-0.5c1.2-0.4 2.5-0.8 3.6-1.6 0.6-0.5 1.3-1.5 1.9-2.4q0.3-0.4 0.5-0.8 0.2-0.3 0.5-0.6c0.4-0.5 0.8-1 1-1.5-1.7 0-3.2 0.6-4.9 0.6-2.8 0-5.6-0.6-8.4-0.8-1.3 3.4-0.6 5.7-0.5 9.3zm0.5-9.3c2.8 0.2 5.6 0.8 8.4 0.8 1.7 0 3.2-0.6 4.9-0.6q0.2-0.5 0.3-0.9c-0.6 0-1.1 0.1-1.6 0.2-0.6 0.1-1.1 0.2-1.7 0.3q-0.6 0-1.3 0c-2.3 0-4.3-0.4-6.1-0.8q-1.2-0.2-2.4-0.4-0.2 0.7-0.5 1.4z"/><path fill-rule="evenodd" class="i" d="m43.7 19.6c-0.2 0.1-0.6 0.2-1 0.2q-0.2 0-0.5-0.1c-2.2-0.7-4.2-1-6.3-1q-1.5 0-3 0.2 0.5-0.3 1-0.6 1.2-0.7 2.4-1.4c7.2-4 15.4-6.1 23.7-6.1q1.8 0 3.5 0.1 1.6 0.1 3.1 0.3c-1.2 0.5-2.2 1.2-3.1 2-0.5 0.4-0.8 0.8-1.2 1.1-0.8 0.6-1.9 0.5-2.8 0.5-5.7 0.1-10.4 1.5-15.8 4.8zm19.8-8.7c-1 0.7-2 1.6-2.9 2.6 0.9 0 2 0.2 2.9-0.3-0.9 0.5-2.5-0.1-2.9 0.3 0.9-1 1.9-1.9 2.9-2.6zm-2.9 2.6c-0.4 0.4-0.7 0.9-1.1 1.3 0.4-0.4 0.7-0.9 1.1-1.3z"/><path class="j" d="m13.7 76.5q0.1-0.7 0.3-1.4c0.6-2.1 1-4.2 2.3-6.1 0.2-0.3 0.3-1 0.3-1.4q-0.2-1.3-0.4-2.5c-1.7 0.4-3.3 1-5 1.4q0.7 5.1 2.5 10zm-2.5-10c1.7-0.4 3.3-1 5-1.4-0.6-5.2-0.1-9.9 1.7-15.5 0.1-0.3 0.1-0.7 0-1.1-2 0.5-4.1 1-6 1.4-1.2 5.5-1.4 11.1-0.7 16.6zm2.3-22.4q-1 2.9-1.6 5.8c1.9-0.4 4-0.9 6-1.4-0.9-3.7-2.2-6.4-1.9-10.4q-0.4 0.8-0.8 1.6-1 2.1-1.7 4.4zm3.1 23.5c0 0.4-0.1 1.1-0.3 1.4-1.3 1.9-1.7 4-2.3 6.1q0.1-0.2 0.2-0.4c0.6-2.1 1.8-4.1 3.3-6 0.3-0.3 0.5-1 0.4-1.4q-0.2-1.2-0.3-2.3c-0.5-0.1-0.9 0-1.4 0.1q0.2 1.2 0.4 2.5zm1.3-18c-1.8 5.6-2.3 10.3-1.7 15.5 0.5-0.1 0.9-0.2 1.4-0.1-0.6-5.4 0-10.1 1.9-15.8 0.1-0.3 0.1-0.8-0.1-1.2-0.5 0.2-1 0.4-1.5 0.5 0.1 0.4 0.1 0.8 0 1.1zm0-1.1c0.5-0.1 1-0.3 1.5-0.5q0-0.1-0.1-0.2c-2.1-3.2-3.2-6.7-3.1-10.1q-0.1 0.2-0.2 0.4c-0.3 4 1 6.7 1.9 10.4z"/><path class="k" d="m82.7 57.2q0.7 1.4 1.3 2.8c0.2 0.4 0.7 0.8 1.2 0.8q4.9 0.2 9.8 0.4c1.1-0.3 1.4-1.7 1.8-2.6-3.1-0.4-6.1-0.6-9.2-0.7-3.1-0.2-4.4-0.6-6.3-3.4q0.7 1.4 1.4 2.7zm-8.1-13.4q3.8 5.3 6.7 10.7c1.9 2.8 3.2 3.2 6.3 3.4 3.1 0.1 6.1 0.3 9.2 0.7 1.7-4.5 3-9.4 1.9-14.2q-0.1-0.6-0.3-1.3c-7.3-2.1-15.8-2.4-23.4-2.1-0.3 0.8-1 1.9-0.4 2.8zm0.4-2.8c7.6-0.3 16.1 0 23.4 2.1-0.9-4-2.5-7.9-4.4-11.6-0.8-0.9-1.7-1.8-2.8-2.2-2.7-0.9-5.4-1.3-7.9-1.3q-1.9 0-3.8 0.3c-0.5 0-0.9 0.5-1 1-0.7 4-1.9 7.9-3.5 11.7zm20 20.2q1.2 0 2.3 0c1.1 0 1.6-1.3 2-2.2-0.8-0.1-1.7-0.3-2.5-0.4-0.4 0.9-0.7 2.3-1.8 2.6zm3.7-16.8c1.1 4.8-0.2 9.7-1.9 14.2 0.8 0.1 1.7 0.3 2.5 0.4 1.9-3.8 3-7.3 3.4-10.8 0-0.5-0.1-1.5-0.3-2.1q-0.4-1-0.8-2.1c-1.1-0.3-2.1-0.6-3.2-0.9q0.2 0.7 0.3 1.3zm-0.3-1.3c1.1 0.3 2.1 0.6 3.2 0.9-1.5-3.9-3.5-7.4-6-10.5q-0.8-1-1.6-2c1.9 3.7 3.5 7.6 4.4 11.6z"/><path class="l" d="m21 69.5q1.6 1.9 3.5 3.5 3.7 3.3 8.3 5.4 0.3 0.1 0.7 0.1c0.3 0 0.7-0.1 1-0.2q4.7-2.7 9.5-5.4c1.7-1.2 1.9-2.9 1.8-4.8-2.2 0.7-4.5 1.3-6.8 1.9-2 0.7-4.4 2.1-6.6 2.3-3.6 0.2-8.4-2-11.7-3.3q0.1 0.3 0.3 0.5zm-0.9-1.9c0.1 0.4 0.3 1 0.6 1.4 3.3 1.3 8.1 3.5 11.7 3.3 2.2-0.2 4.6-1.6 6.6-2.3 2.3-0.6 4.6-1.2 6.8-1.9 0-0.9 0-2 0-2.9 0.3-4.9 0.7-9.7 1.3-14.4-4.5-0.9-8.3-2.8-12.7-1.2-4.3 1.5-9.1 1.8-13.6 3.1-1.2 5.3-1.5 10.2-0.7 14.9zm2.7-20c-0.4 0.4-0.9 1.2-1 1.8q-0.6 1.7-1 3.3c4.5-1.3 9.3-1.6 13.6-3.1 4.4-1.6 8.2 0.3 12.7 1.2 0.4-3-2-5.1-4-7.1q-2.8-2.2-5.6-4.5c-0.2-0.2-0.6-0.3-1-0.3q-0.3 0-0.5 0c-3.9 1.6-7.5 3.7-10.8 6.5q-1.2 1.1-2.4 2.2zm21.2 25.3q1-0.6 2.1-1.3 0.7-0.4 1.4-0.8c0.4-0.2 0.8-0.8 0.8-1.3q0.1-1.1 0.1-2.2c-0.9 0.2-1.7 0.6-2.6 0.8 0.1 1.9-0.1 3.6-1.8 4.8zm1.8-7.7c0 0.9 0 2 0 2.9 0.9-0.2 1.7-0.6 2.6-0.8 0.3-5.5 0.8-11 1.5-16.3-0.9-0.1-1.9-0.1-2.8-0.2-0.6 4.7-1 9.5-1.3 14.4zm1.3-14.4c0.9 0.1 1.9 0.1 2.8 0.2 0.1-0.7 0.2-1.6-0.5-2.2q-2.2-1.8-4.5-3.6-0.9-0.8-1.8-1.5c2 2 4.4 4.1 4 7.1z"/><path fill-rule="evenodd" class="m" d="m81.9 95.8c-2.4 0-4.7-0.4-7.1-1.2-0.5-0.1-0.9-0.6-1-1.1q-0.2-1-0.4-2-1-5.5-2-11.1 0-0.1 0-0.2c0-0.5 0.2-1.1 0.5-1.4 2.9-3 5.4-6 7.7-9q2.2-2.8 4-5.6c0.3-0.4 0.9-0.8 1.4-0.8q1.7 0.1 3.4 0.2 4.1 0.1 8.2 0.3c0.6 0 1.3 0.1 1.5 0.8 1.2 4.4 1.8 8.7 1.9 13.1q0 0.2 0 0.4c-0.1 0.5-0.2 1.3-0.4 1.7q-2.1 4.9-5 8.6-0.6 0.8-1.3 1.5-0.6 0.7-1.3 1.4-1.5 1.5-3.1 2.8c-0.5 0.3-1.4 0.8-2 0.9q-0.9 0.3-1.8 0.4-1.6 0.3-3.2 0.3zm12.7-7.3c-0.5 0.5-1.2 0.9-1.5 1.4q0.7-0.6 1.5-1.4zm3.1-10.2c0.8-0.1 1.5-0.3 2.3-0.1-0.8-0.2-1.5 0-2.3 0.1z"/><path class="n" d="m37.8 95.3c0.2 0.5 0.8 1.2 1.3 1.5 4.6 3.2 9.9 5.3 16.3 6.5 0.5 0.1 1.1 0 1.6 0 0.1-1 0.2-2 0.4-3-6.7 0.2-14.3-3.7-20.1-6.7q0.2 0.8 0.5 1.7zm-2-14.8c-0.4 0.3-0.7 0.9-0.7 1.3 0.1 3.9 0.9 7.9 2.2 11.8 5.8 3 13.4 6.9 20.1 6.7 0.4-2.2 0.4-3.9 0.1-6.1-0.3-1.8-1-4.1-0.5-5.9 1-3.1 3.3-7.4 3-10.7-3.4-1.3-6.6-2.7-9.6-4.4-0.5-0.3-1.2-0.3-1.6-0.1q-6.5 3.7-13 7.4zm21.2 22.8q0.3 0 0.6-0.1 5.9-1.5 10-4.6 1-0.8 1.9-1.6c-3.6 1.7-8.1 3.2-12.1 3.3-0.2 1-0.3 2-0.4 3zm0-15c-0.5 1.8 0.2 4.1 0.5 5.9 0.3 2.2 0.3 3.9-0.1 6.1 4-0.1 8.5-1.6 12.1-3.3q0.7-0.6 1.3-1.3c0.3-0.3 0.5-1.1 0.4-1.6q-1.2-6.6-2.4-13.1c-0.1-0.5-0.5-1-1-1.1q-4.1-1-7.8-2.3c0.3 3.3-2 7.6-3 10.7z"/><path fill-rule="evenodd" class="o" d="m52.6 47q-0.3 0-0.6 0c-0.3 0-0.7-0.1-0.9-0.2q-3.7-3-7.4-6-1.3-1-2.6-2.1-0.9-0.8-1.9-1.6c-0.4-0.3-0.7-0.9-0.6-1.4 0.7-4.4 2.2-8.7 4.5-12.6 0.1-0.3 0.4-0.6 0.7-0.9 0.2-0.2 0.5-0.4 0.7-0.6q5.4-3 10.8-4.1 2.8-0.6 5.6-0.6 0.4 0 0.9 0.1c0.4 0 1.2 0.2 1.7 0.5q3.1 1.5 5.7 3.4 1.1 0.7 2 1.6 2.4 2 4.3 4.4c0.3 0.4 0.5 1.2 0.4 1.7-0.5 3.2-1.4 6.3-2.6 9.5q-0.6 1.5-1.2 3c-0.5 1-1.6 1-2.5 1.2-5.9 0.9-10.9 2.2-15.5 4q-0.8 0.3-1.5 0.7zm16.6-26.1c2.1 2.4 4.2 5.2 3.6 8.6 0.6-3.4-1.5-6.2-3.6-8.6zm3.6 8.6c-0.6 3.1-1.5 6.3-2.3 9.5 1-0.1 2.1-0.1 2.8-0.9-0.7 0.8-2.4-0.2-2.8 0.9 0.8-3.2 1.7-6.4 2.3-9.5zm-2.3 9.5q-0.4 1.6-0.9 3.3 0.5-1.7 0.9-3.3z"/></svg>