<svg width="43" height="63" viewBox="0 0 43 63" fill="none" xmlns="http://www.w3.org/2000/svg">
<path d="M40.0156 0.746635C40.5637 0.746635 41.0893 0.964346 41.4768 1.35187C41.8643 1.7394 42.082 2.265 42.082 2.81305L42.082 60.6726C42.0821 61.0168 41.9961 61.3557 41.8319 61.6583C41.6677 61.9609 41.4305 62.2177 41.1419 62.4053C40.8532 62.593 40.5223 62.7055 40.1791 62.7328C39.8359 62.76 39.4913 62.701 39.1767 62.5613L21.4179 54.6676L3.65917 62.5613C3.34454 62.701 2.99997 62.76 2.65677 62.7328C2.31357 62.7055 1.98261 62.593 1.69395 62.4053C1.4053 62.2177 1.16811 61.9609 1.00392 61.6583C0.839734 61.3557 0.753755 61.0168 0.753797 60.6726L0.753799 4.87946L0.753799 3.73951L0.753799 1.35187L40.0156 0.746635Z" fill="#2C2C2C"/>
</svg>
