<svg width="48" height="48" viewBox="0 0 48 48" fill="none" xmlns="http://www.w3.org/2000/svg">
    <path
        d="M13.7875 13.8372H34.2125M13.7875 19.186H34.2125M13.7875 24.5349H34.2125M2.5 7.41861V43.4085C2.5 44.9757 4.22084 45.934 5.55321 45.1087L6.48961 44.5286C8.00761 43.5883 9.91186 43.5289 11.4855 44.3728L13.9048 45.6701C15.4446 46.4958 17.3038 46.4578 18.8086 45.5699L20.6738 44.4693C22.2061 43.5652 24.1033 43.5433 25.6559 44.4119L27.8515 45.6402C29.3626 46.4856 31.2036 46.489 32.7178 45.6491L35.1789 44.2841C36.618 43.4859 38.3577 43.4469 39.8311 44.1799L42.6092 45.5619C43.9388 46.2233 45.5 45.2563 45.5 43.7713V7.41861C45.5 3.87371 42.6122 1 39.05 1H8.95C5.38776 1 2.5 3.87371 2.5 7.41861Z"
        stroke="currentColor" stroke-width="2" stroke-linecap="round" stroke-linejoin="round">
    </path>
</svg>