<svg width="20" height="18" viewBox="0 0 20 18" fill="none" xmlns="http://www.w3.org/2000/svg">
<path d="M9.12903 0.699219C8.89253 0.699219 8.65603 0.753796 8.42862 0.835661L1.73385 3.60999C1.28883 3.79223 0.934395 4.14373 0.74847 4.58722C0.562545 5.03071 0.560349 5.52989 0.742364 5.975L5.25406 16.8449C5.38733 17.1746 5.6143 17.458 5.90691 17.6601C6.19952 17.8622 6.54494 17.9741 6.90047 17.9819C7.13697 17.9819 7.38256 17.9546 7.61906 17.8455L14.3229 15.0712C14.6465 14.9338 14.9239 14.7066 15.1222 14.4164C15.3205 14.1262 15.4314 13.7852 15.4418 13.4339C15.4509 13.2064 15.4054 12.9427 15.3235 12.7062L10.7754 1.83624C10.6473 1.50305 10.4216 1.21628 10.1279 1.01342C9.83412 0.810563 9.486 0.701056 9.12903 0.699219ZM12.2945 0.699219L15.4327 8.29452V2.51845C15.4327 2.03596 15.241 1.57323 14.8998 1.23206C14.5587 0.890887 14.0959 0.699219 13.6134 0.699219M17.261 2.10003V10.3139L19.4714 4.98351C19.562 4.76317 19.6082 4.52711 19.6074 4.28887C19.6066 4.05062 19.5588 3.81488 19.4667 3.59516C19.3745 3.37544 19.24 3.17606 19.0706 3.00847C18.9013 2.84087 18.7005 2.70835 18.4799 2.61851M9.12903 2.49116L13.6589 13.4248L6.93685 16.2082L2.40696 5.28369" fill="#8E2BFF"/>
</svg>
