<svg width="25" height="25" viewBox="0 0 25 25" fill="none" xmlns="http://www.w3.org/2000/svg">
<path d="M12.6509 2.35354C18.1649 2.35354 22.6509 6.83954 22.6509 12.3535C22.6509 17.8675 18.1649 22.3535 12.6509 22.3535C7.13688 22.3535 2.65088 17.8675 2.65088 12.3535C2.65088 6.83954 7.13688 2.35354 12.6509 2.35354ZM12.6509 0.353542C6.02388 0.353542 0.650879 5.72654 0.650879 12.3535C0.650879 18.9805 6.02388 24.3535 12.6509 24.3535C19.2779 24.3535 24.6509 18.9805 24.6509 12.3535C24.6509 5.72654 19.2779 0.353542 12.6509 0.353542ZM16.6509 14.4365C16.6509 12.2915 14.4189 11.6945 12.7079 10.8905C11.6689 10.3505 11.7999 9.06154 13.2889 8.97454C14.1149 8.92454 14.9639 9.16954 15.7319 9.43954L16.0939 7.79254C15.1869 7.51654 14.3749 7.39054 13.6509 7.37154V6.35354H12.6509V7.42054C10.7059 7.68754 9.66688 8.90754 9.66688 10.2705C9.66688 12.7085 12.5139 13.0805 13.4449 13.5135C14.7149 14.0815 14.4799 15.2635 13.3309 15.5245C12.3339 15.7505 11.0619 15.3565 10.1059 14.9845L9.65088 16.6285C10.5449 17.0905 11.6159 17.3365 12.6509 17.3555V18.3535H13.6509V17.3005C15.3079 17.0685 16.6529 16.1545 16.6509 14.4365Z" fill="#317EF4"/>
</svg>
