<svg width="132" height="99" viewBox="0 0 132 99" fill="none" xmlns="http://www.w3.org/2000/svg">
<g filter="url(#filter0_dd_1104_22772)">
<g clip-path="url(#clip0_1104_22772)">
<rect x="7.5" y="3" width="117.6" height="84" rx="9.14286" fill="#F93939"/>
<path d="M113.9 3H18.7C12.5144 3 7.5 8.01441 7.5 14.2V75.8C7.5 81.9856 12.5144 87 18.7 87H113.9C120.086 87 125.1 81.9856 125.1 75.8V14.2C125.1 8.01441 120.086 3 113.9 3Z" fill="#F93939"/>
<path fill-rule="evenodd" clip-rule="evenodd" d="M7.5 25.4001H125.1V64.6001H7.5V25.4001Z" fill="#FFDA2C"/>
<path fill-rule="evenodd" clip-rule="evenodd" d="M57.9001 37.8434V51.9554C57.9001 55.8754 54.1369 59.0114 49.5001 59.0114H38.3001C33.6745 59.0002 29.9001 55.8474 29.9001 51.9442V37.8322C29.9001 34.629 32.4089 31.9522 35.8585 31.0842C36.9001 28.1722 40.1033 30.7818 43.9001 30.7818C47.7193 30.7818 50.9001 28.189 51.9417 31.0898C55.3801 31.9802 57.9001 34.6626 57.9001 37.8434Z" fill="#D4AF2C"/>
<path fill-rule="evenodd" clip-rule="evenodd" d="M57.8997 42.2001H63.4997V59.0001H57.8997V42.2001ZM24.2997 42.2001H29.8997V59.0001H24.2997V42.2001Z" fill="#CBCBCB"/>
<path fill-rule="evenodd" clip-rule="evenodd" d="M57.8997 53.4H63.4997V59.0001H57.8997V53.4ZM24.2997 53.4H29.8997V59.0001H24.2997V53.4Z" fill="#1A47B8"/>
<path fill-rule="evenodd" clip-rule="evenodd" d="M57.8997 36.6H63.4997V42.2001H57.8997V36.6ZM24.2997 36.6H29.8997V42.2001H24.2997V36.6Z" fill="#D4AF2C"/>
<path fill-rule="evenodd" clip-rule="evenodd" d="M35.5 36.6H41.1V45H35.5V36.6ZM46.7 47.8H52.3V56.2H46.7V47.8Z" fill="#AF010D"/>
<path fill-rule="evenodd" clip-rule="evenodd" d="M35.5 47.8001H41.1V56.2001H35.5V47.8001Z" fill="#FFDA2C"/>
<path fill-rule="evenodd" clip-rule="evenodd" d="M46.6998 36.6H52.2998V45H46.6998V36.6Z" fill="#AE6A3E"/>
<path fill-rule="evenodd" clip-rule="evenodd" d="M41.1 36.6L35.5 31.0001H52.3L46.6998 36.6H41.1Z" fill="#AF010D"/>
<path fill-rule="evenodd" clip-rule="evenodd" d="M41.0993 25.4001H46.6993V31.0001H41.0993V25.4001Z" fill="#D4AF2C"/>
</g>
</g>
<defs>
<filter id="filter0_dd_1104_22772" x="0.642857" y="0.714285" width="131.314" height="97.7143" filterUnits="userSpaceOnUse" color-interpolation-filters="sRGB">
<feFlood flood-opacity="0" result="BackgroundImageFix"/>
<feColorMatrix in="SourceAlpha" type="matrix" values="0 0 0 0 0 0 0 0 0 0 0 0 0 0 0 0 0 0 127 0" result="hardAlpha"/>
<feOffset dy="4.57143"/>
<feGaussianBlur stdDeviation="3.42857"/>
<feComposite in2="hardAlpha" operator="out"/>
<feColorMatrix type="matrix" values="0 0 0 0 0.258824 0 0 0 0 0.278431 0 0 0 0 0.298039 0 0 0 0.08 0"/>
<feBlend mode="normal" in2="BackgroundImageFix" result="effect1_dropShadow_1104_22772"/>
<feColorMatrix in="SourceAlpha" type="matrix" values="0 0 0 0 0 0 0 0 0 0 0 0 0 0 0 0 0 0 127 0" result="hardAlpha"/>
<feOffset/>
<feGaussianBlur stdDeviation="0.285714"/>
<feComposite in2="hardAlpha" operator="out"/>
<feColorMatrix type="matrix" values="0 0 0 0 0.258824 0 0 0 0 0.278431 0 0 0 0 0.298039 0 0 0 0.32 0"/>
<feBlend mode="normal" in2="effect1_dropShadow_1104_22772" result="effect2_dropShadow_1104_22772"/>
<feBlend mode="normal" in="SourceGraphic" in2="effect2_dropShadow_1104_22772" result="shape"/>
</filter>
<clipPath id="clip0_1104_22772">
<rect x="7.5" y="3" width="117.6" height="84" rx="9.14286" fill="white"/>
</clipPath>
</defs>
</svg>
