<svg width="21" height="21" viewBox="0 0 21 21" fill="none" xmlns="http://www.w3.org/2000/svg">
<g clip-path="url(#clip0_289_5474)">
<path d="M0.864258 15.0967C0.864258 15.686 1.09838 16.2513 1.51513 16.668C1.93188 17.0848 2.49711 17.3189 3.08648 17.3189H18.642C19.2314 17.3189 19.7966 17.0848 20.2134 16.668C20.6301 16.2513 20.8643 15.686 20.8643 15.0967V5.09667C20.8643 4.5073 20.6301 3.94207 20.2134 3.52532C19.7966 3.10858 19.2314 2.87445 18.642 2.87445H3.08648C2.49711 2.87445 1.93188 3.10858 1.51513 3.52532C1.09838 3.94207 0.864258 4.5073 0.864258 5.09667V15.0967Z" fill="#75AADB"/>
<path d="M20.8643 7.31891H0.864258V12.8745H20.8643V7.31891Z" fill="#EEEEEE"/>
<path d="M10.8643 7.31891L10.5932 8.73446L9.80098 7.53058L10.0926 8.94169L8.90042 8.13224L9.70987 9.32502L8.2982 9.03391L9.50209 9.82557L8.08653 10.0967L9.50209 10.3678L8.2982 11.16L9.70987 10.8684L8.90042 12.0606L10.0926 11.2511L9.80098 12.6628L10.5932 11.4589L10.8643 12.8745L11.1354 11.4589L11.9271 12.6628L11.636 11.2511L12.8288 12.0606L12.0193 10.8684L13.4304 11.16L12.2265 10.3678L13.6421 10.0967L12.2265 9.82557L13.4304 9.03391L12.0193 9.32502L12.8288 8.13224L11.636 8.94169L11.9271 7.53058L11.1354 8.73446L10.8643 7.31891Z" fill="#FCBF49"/>
<path d="M10.8643 8.0578L10.7299 8.76058L10.6654 9.09669L10.4771 8.81113L10.0838 8.21335L10.2288 8.91391L10.2982 9.24946L10.0149 9.05724L9.42265 8.65558L9.82431 9.2478L10.0165 9.53113L9.68153 9.46169L8.98042 9.31724L9.5782 9.71058L9.86431 9.8978L9.5282 9.96224L8.82542 10.0967L9.5282 10.2311L9.86431 10.2956L9.57876 10.4839L8.98098 10.8772L9.68209 10.7322L10.0176 10.6628L9.82542 10.9461L9.42376 11.5378L10.0154 11.1361L10.2988 10.9439L10.2293 11.2795L10.0843 11.9806L10.4776 11.3828L10.6654 11.0967L10.7299 11.4328L10.8643 12.1356L10.9988 11.4328L11.0632 11.0967L11.2515 11.3828L11.6449 11.9806L11.5004 11.2795L11.431 10.9445L11.7143 11.1367L12.3065 11.5384L11.9049 10.9461L11.7126 10.6628L12.0482 10.7322L12.7488 10.8772L12.151 10.4839L11.8654 10.2956L12.2015 10.2311L12.9032 10.0967L12.2004 9.96224L11.8643 9.8978L12.1504 9.70946L12.7482 9.31613L12.0476 9.46057L11.7126 9.53002L11.9049 9.24669L12.3071 8.65446L11.7149 9.05669L11.4315 9.24891L11.501 8.91391L11.6454 8.21335L11.2521 8.81113L11.0638 9.09724L10.9993 8.76113L10.8643 8.0578ZM10.8643 7.31891L11.1354 8.73446L11.9271 7.53058L11.636 8.94224L12.8288 8.1328L12.0193 9.32557L13.4304 9.03446L12.2265 9.82613L13.6421 10.0967L12.2265 10.3678L13.4304 11.16L12.0193 10.8684L12.8288 12.0606L11.636 11.2511L11.9271 12.6628L11.1354 11.4589L10.8643 12.8745L10.5932 11.4589L9.80098 12.6628L10.0926 11.2511L8.90042 12.0606L9.70987 10.8684L8.2982 11.16L9.50209 10.3678L8.08653 10.0967L9.50209 9.82557L8.2982 9.03391L9.70987 9.32502L8.90042 8.13224L10.0926 8.94169L9.80098 7.53002L10.5932 8.73391L10.8643 7.31891Z" fill="#843511"/>
<path d="M10.8645 11.2078C10.2508 11.2078 9.75336 10.7103 9.75336 10.0967C9.75336 9.48303 10.2508 8.98557 10.8645 8.98557C11.4781 8.98557 11.9756 9.48303 11.9756 10.0967C11.9756 10.7103 11.4781 11.2078 10.8645 11.2078Z" fill="#FCBF49"/>
<path d="M10.8644 11.2772C11.5155 11.2772 12.0449 10.7478 12.0449 10.0967C12.0449 9.44555 11.5155 8.91611 10.8644 8.91611C10.2133 8.91611 9.68381 9.44555 9.68381 10.0967C9.68381 10.7478 10.2133 11.2772 10.8644 11.2772ZM10.8644 9.055C11.4388 9.055 11.906 9.52222 11.906 10.0967C11.906 10.6711 11.4388 11.1383 10.8644 11.1383C10.2899 11.1383 9.8227 10.6711 9.8227 10.0967C9.8227 9.52222 10.2899 9.055 10.8644 9.055Z" fill="#843511"/>
<path d="M10.9747 9.97112C10.9747 10.0572 11.1197 10.1267 11.2986 10.1267C11.478 10.1267 11.623 10.0572 11.623 9.97112C11.623 9.88501 11.478 9.81556 11.2986 9.81556C11.1192 9.81556 10.9747 9.88501 10.9747 9.97112ZM10.1119 9.95778C10.1119 9.86834 10.2597 9.79556 10.4419 9.79556C10.6242 9.79556 10.7719 9.86778 10.7719 9.95778C10.7719 10.0478 10.6242 10.12 10.4419 10.12C10.2592 10.12 10.1119 10.0472 10.1119 9.95778Z" fill="#C16540"/>
<path d="M11.1626 10.5822C11.1626 10.5122 11.0259 10.455 10.8582 10.455C10.6904 10.455 10.5537 10.5117 10.5537 10.5822C10.5537 10.6522 10.6904 10.7095 10.8582 10.7095C11.0259 10.7095 11.1626 10.6522 11.1626 10.5822Z" fill="#ED8662"/>
</g>
<defs>
<clipPath id="clip0_289_5474">
<rect width="20" height="20" fill="white" transform="matrix(-1 0 0 1 20.8643 0.0966797)"/>
</clipPath>
</defs>
</svg>
