<svg width="20" height="20" viewBox="0 0 20 20" fill="none" xmlns="http://www.w3.org/2000/svg">
<path d="M12.3916 17.5737L12.5065 17.5361L12.5457 17.4151L13.0904 15.7348L13.1297 15.6137L13.0548 15.5107L11.6966 13.6423L11.6217 13.5393H11.4944H8.20462H8.07734L8.00246 13.6422L6.64323 15.5107L6.56825 15.6137L6.60762 15.7349L7.15328 17.4153L7.19252 17.5361L7.31328 17.5756L7.32395 17.5791C8.1062 17.8352 9.01331 18.1322 9.89094 18.1318M12.3916 17.5737C10.9524 18.1259 10.1286 18.1354 9.89094 18.1318M12.3916 17.5737L12.3856 17.5757C12.3096 17.6005 12.2328 17.626 12.1553 17.6517C11.4604 17.8824 10.7089 18.1318 9.89292 18.1318M12.3916 17.5737L9.89292 18.1318M9.89094 18.1318C9.89024 18.1318 9.88954 18.1318 9.88885 18.1318L9.8927 17.8818V18.1318C9.89277 18.1318 9.89285 18.1318 9.89292 18.1318M9.89094 18.1318C9.8916 18.1318 9.89226 18.1318 9.89292 18.1318M3.32172 8.50072L3.2006 8.46134L3.09755 8.53616L1.82499 9.46004L1.72321 9.53394L1.72188 9.65972L1.71991 9.84686H1.7199V9.84949C1.7199 11.6072 2.27788 13.2345 3.22601 14.5648L3.30078 14.6696H3.42959H5.31084H5.43819L5.51306 14.5666L6.81615 12.774L6.89102 12.671L6.85174 12.5499L6.34548 10.9888L5.83921 9.42764L5.7999 9.30641L5.6787 9.267L3.32172 8.50072ZM16.6015 8.53621L16.4984 8.46132L16.3773 8.50072L14.0203 9.267L13.8991 9.30641L13.8598 9.42764L12.8472 12.5499L12.808 12.671L12.8828 12.774L14.1849 14.5666L14.2597 14.6696H14.3871H16.2684H16.397L16.4718 14.565C17.4547 13.1891 17.9818 11.5399 17.9791 9.84908L17.979 9.84554L17.9761 9.6584L17.9741 9.53351L17.8731 9.4601L16.6015 8.53621ZM9.99642 7.22031L9.84952 7.1136L9.7026 7.22028L7.39388 8.89666L7.24693 9.00336L7.30297 9.1761L8.18548 11.8965L8.24156 12.0694H8.42328H11.2747H11.4564L11.5125 11.8965L12.395 9.1761L12.451 9.0034L12.3042 8.89669L9.99642 7.22031ZM12.1776 2.05836L12.059 2.02289L11.9589 2.09578L10.6873 3.02163L10.5844 3.09652V3.22374V5.70285V5.83025L10.6875 5.90512L13.341 7.83266L13.444 7.90749L13.5651 7.86819L15.7713 7.15213L15.8925 7.11281L15.9319 6.99168L16.4776 5.31431L16.5168 5.19362L16.4426 5.0907C15.3942 3.63761 13.8942 2.57162 12.1776 2.05836ZM7.74012 2.09578L7.63997 2.02286L7.52128 2.05838C5.80487 2.57213 4.30624 3.63849 3.25833 5.09174L3.18411 5.19467L3.22339 5.31534L3.76905 6.99172L3.80846 7.1128L3.92956 7.15212L6.13487 7.86818L6.25601 7.90751L6.35904 7.83264L9.01151 5.90509L9.11454 5.83022V5.70285V3.22374V3.09652L9.01169 3.02163L7.74012 2.09578ZM9.84949 0.25C15.1513 0.25 19.449 4.54769 19.449 9.84949C19.449 15.1513 15.1513 19.449 9.84949 19.449C4.54769 19.449 0.25 15.1513 0.25 9.84949C0.25 4.54769 4.54769 0.25 9.84949 0.25Z" fill="#8E2BFF" stroke="white" stroke-width="0.5"/>
</svg>


