<svg width="27" height="29" viewBox="0 0 27 29" fill="none" xmlns="http://www.w3.org/2000/svg">
<path d="M12.2317 15.1225V8.01878H10.2348C8.02277 8.01878 6.85674 6.58454 6.85674 5.1909C6.85674 3.74351 7.92899 2.88571 9.36323 2.88571C11.0119 2.88571 12.2986 4.15869 12.2986 6.29003V8.01878H14.5369V6.29003C14.5369 4.15869 15.8236 2.88571 17.4723 2.88571C18.9065 2.88571 19.9919 3.74351 19.9919 5.19033C19.9919 6.58454 18.7853 8.01878 16.6008 8.01878H14.6038V15.1231H24.0533C25.5139 15.1231 26.3048 14.5604 26.3048 13.1261V10.0163C26.3048 8.59579 25.5139 8.01935 24.0533 8.01935H20.9304C21.7613 7.26906 22.2571 6.25 22.2571 5.09712C22.2571 2.51057 20.2064 0.648003 17.6061 0.648003C15.6761 0.648003 14.108 1.71968 13.4246 3.62342C12.7407 1.72025 11.1595 0.648003 9.22941 0.648003C6.64229 0.648003 4.57843 2.51057 4.57843 5.09712C4.57843 6.25 5.06108 7.26906 5.90516 8.01935H2.78277C1.40171 8.01935 0.530762 8.59579 0.530762 10.0163V13.1261C0.530762 14.5604 1.33481 15.1231 2.7822 15.1231L12.2317 15.1225ZM12.2317 28.9811V16.5567H2.44708V25.5768C2.44708 27.8151 3.76066 28.9811 5.99894 28.9811H12.2317ZM14.6038 16.5567V28.9811H20.8366C23.0749 28.9811 24.3879 27.8151 24.3879 25.5768V16.5567H14.6038Z" fill="url(#paint0_linear_289_6257)"/>
<defs>
<linearGradient id="paint0_linear_289_6257" x1="13.4178" y1="0.648003" x2="13.4178" y2="21.3838" gradientUnits="userSpaceOnUse">
<stop offset="0.18" stop-color="#CFA53C"/>
<stop offset="0.340655" stop-color="#FFF2C6"/>
<stop offset="1" stop-color="#FFB700"/>
</linearGradient>
</defs>
</svg>
