<svg width="84" height="113" viewBox="0 0 84 113" fill="none" xmlns="http://www.w3.org/2000/svg">
<path d="M42.061 19.3912C49.9406 19.3912 58.5483 21.4086 65.2175 24.6968V68.2548C65.2175 75.6845 63.2974 77.215 42.0286 90.326C20.5139 77.1594 18.8397 75.4898 18.8397 68.2548V24.6875C25.5227 21.3669 34.0099 19.3912 42.061 19.3912ZM83.7686 14.7534V68.2548C83.7686 89.5979 68.9091 95.1679 42.0286 112.147C15.148 95.1679 0.288574 89.5932 0.288574 68.2548V14.7534C9.30905 7.02688 25.0358 0.840088 42.0286 0.840088C59.0214 0.840088 74.7481 7.02688 83.7686 14.7534ZM74.493 19.3495C66.4743 13.9743 54.2677 10.1156 42.061 10.1156C29.7524 10.1156 17.5689 13.9836 9.56413 19.3495V68.2502C9.56413 82.298 17.2536 85.9248 42.0286 101.211C66.7758 85.9387 74.493 82.3119 74.493 68.2502V19.3495Z" fill="url(#paint0_linear_289_6474)"/>
<path d="M32.6954 61.2498C35.6394 58.7965 37.9854 56.7571 39.7334 55.1318C41.4814 53.4758 42.9381 51.7585 44.1034 49.9798C45.2687 48.2011 45.8514 46.4531 45.8514 44.7358C45.8514 43.1718 45.4834 41.9451 44.7474 41.0558C44.0114 40.1665 42.8767 39.7218 41.3434 39.7218C39.8101 39.7218 38.6294 40.2431 37.8014 41.2858C36.9734 42.2978 36.5441 43.6931 36.5134 45.4718H30.2574C30.3801 41.7918 31.4687 39.0011 33.5234 37.0998C35.6087 35.1985 38.2461 34.2478 41.4354 34.2478C44.9314 34.2478 47.6147 35.1831 49.4854 37.0538C51.3561 38.8938 52.2914 41.3318 52.2914 44.3678C52.2914 46.7598 51.6474 49.0445 50.3594 51.2218C49.0714 53.3991 47.5994 55.3005 45.9434 56.9258C44.2874 58.5205 42.1254 60.4525 39.4574 62.7218H53.0274V68.0578H30.3034V63.2738L32.6954 61.2498Z" fill="white"/>
<defs>
<linearGradient id="paint0_linear_289_6474" x1="42.0286" y1="0.840088" x2="42.0286" y2="112.147" gradientUnits="userSpaceOnUse">
<stop stop-color="#A4A4A4"/>
<stop offset="0.486776" stop-color="#D6D6D6"/>
<stop offset="1" stop-color="#8E8E8E"/>
</linearGradient>
</defs>
</svg>
