<svg width="84" height="112" viewBox="0 0 84 112" fill="none" xmlns="http://www.w3.org/2000/svg">
<path d="M42.3008 18.8802C50.1804 18.8802 58.7881 20.8976 65.4572 24.1858V67.7438C65.4572 75.1736 63.5372 76.704 42.2683 89.815C20.7537 76.6484 19.0794 74.9788 19.0794 67.7438V24.1766C25.7625 20.8559 34.2496 18.8802 42.3008 18.8802ZM84.0083 14.2424V67.7438C84.0083 89.0869 69.1489 94.6569 42.2683 111.636C15.3878 94.6569 0.52832 89.0823 0.52832 67.7438V14.2424C9.5488 6.5159 25.2755 0.329102 42.2683 0.329102C59.2611 0.329102 74.9878 6.5159 84.0083 14.2424ZM74.7328 18.8385C66.7141 13.4633 54.5074 9.60466 42.3008 9.60466C29.9921 9.60466 17.8087 13.4726 9.80388 18.8385V67.7392C9.80388 81.787 17.4933 85.4138 42.2683 100.7C67.0155 85.4277 74.7328 81.8009 74.7328 67.7392V18.8385Z" fill="url(#paint0_linear_289_6107)"/>
<path d="M30.7986 44.7938C30.9519 41.7271 32.0252 39.3658 34.0186 37.7098C36.0426 36.0231 38.6952 35.1798 41.9766 35.1798C44.2152 35.1798 46.1319 35.5784 47.7266 36.3758C49.3212 37.1424 50.5172 38.2004 51.3146 39.5498C52.1426 40.8684 52.5566 42.3711 52.5566 44.0578C52.5566 45.9898 52.0506 47.6304 51.0386 48.9798C50.0572 50.2984 48.8766 51.1878 47.4966 51.6478V51.8318C49.2752 52.3838 50.6552 53.3651 51.6366 54.7758C52.6486 56.1864 53.1546 57.9958 53.1546 60.2038C53.1546 62.0438 52.7252 63.6844 51.8666 65.1258C51.0386 66.5671 49.7966 67.7018 48.1406 68.5298C46.5152 69.3271 44.5526 69.7258 42.2526 69.7258C38.7872 69.7258 35.9659 68.8518 33.7886 67.1038C31.6112 65.3558 30.4612 62.7798 30.3386 59.3758H36.5946C36.6559 60.8784 37.1619 62.0898 38.1126 63.0098C39.0939 63.8991 40.4279 64.3438 42.1146 64.3438C43.6786 64.3438 44.8746 63.9144 45.7026 63.0558C46.5612 62.1664 46.9906 61.0318 46.9906 59.6518C46.9906 57.8118 46.4079 56.4931 45.2426 55.6958C44.0772 54.8984 42.2679 54.4998 39.8146 54.4998H38.4806V49.2098H39.8146C44.1692 49.2098 46.3466 47.7531 46.3466 44.8398C46.3466 43.5211 45.9479 42.4938 45.1506 41.7578C44.3839 41.0218 43.2646 40.6538 41.7926 40.6538C40.3512 40.6538 39.2319 41.0524 38.4346 41.8498C37.6679 42.6164 37.2232 43.5978 37.1006 44.7938H30.7986Z" fill="white"/>
<defs>
<linearGradient id="paint0_linear_289_6107" x1="84.0083" y1="55.9824" x2="0.52832" y2="55.9824" gradientUnits="userSpaceOnUse">
<stop offset="0.243651" stop-color="#A14B15"/>
<stop offset="0.520628" stop-color="#F2BA8E"/>
<stop offset="0.7969" stop-color="#A14B15"/>
</linearGradient>
</defs>
</svg>
