<svg width="84" height="113" viewBox="0 0 84 113" fill="none" xmlns="http://www.w3.org/2000/svg">
<path d="M42.0614 19.392C49.9413 19.392 58.5494 21.4095 65.2188 24.6979V68.2578C65.2188 75.6878 63.2987 77.2183 42.0289 90.3299C20.5133 77.1627 18.839 75.493 18.839 68.2578V24.6886C25.5224 21.3678 34.0099 19.392 42.0614 19.392ZM83.7708 14.754V68.2578C83.7708 89.6018 68.9107 95.172 42.0289 112.152C15.1472 95.172 0.287109 89.5971 0.287109 68.2578V14.754C9.30798 7.02715 25.0354 0.840088 42.0289 0.840088C59.0225 0.840088 74.7499 7.02715 83.7708 14.754ZM74.4948 19.3503C66.4757 13.9748 54.2686 10.116 42.0614 10.116C29.7522 10.116 17.5682 13.9841 9.56307 19.3503V68.2531C9.56307 82.3016 17.2528 85.9285 42.0289 101.215C66.7772 85.9424 74.4948 82.3155 74.4948 68.2531V19.3503Z" fill="url(#paint0_linear_289_6273)"/>
<path d="M35.1848 41.283V35.349H46.2708V68.883H39.6468V41.283H35.1848Z" fill="white"/>
<defs>
<linearGradient id="paint0_linear_289_6273" x1="42.0289" y1="0.840088" x2="42.0289" y2="82.3043" gradientUnits="userSpaceOnUse">
<stop offset="0.18" stop-color="#CFA53C"/>
<stop offset="0.340655" stop-color="#FFF2C6"/>
<stop offset="1" stop-color="#FFB700"/>
</linearGradient>
</defs>
</svg>
