<svg width="31" height="46" viewBox="0 0 31 46" fill="none" xmlns="http://www.w3.org/2000/svg">
<path d="M24.6533 18.8615V9.942C24.6533 4.76938 20.4605 0.574707 15.286 0.574707C10.1096 0.574707 5.91872 4.76938 5.91872 9.942V18.8615C2.49591 21.608 0.29834 25.8196 0.29834 30.5501C0.29834 38.827 7.00907 45.5377 15.286 45.5377C23.563 45.5377 30.2737 38.827 30.2737 30.5501C30.2737 25.8196 28.0761 21.608 24.6533 18.8615ZM15.286 34.297C13.2177 34.297 11.5391 32.6184 11.5391 30.5501C11.5391 28.4818 13.2177 26.8031 15.286 26.8031C17.3543 26.8031 19.0329 28.4818 19.0329 30.5501C19.0329 32.6184 17.3543 34.297 15.286 34.297ZM20.9064 16.6621C19.1697 15.9577 17.2756 15.5624 15.286 15.5624C13.2964 15.5624 11.4023 15.9577 9.66564 16.6621V9.942C9.66564 6.8433 12.1873 4.32162 15.286 4.32162C18.3847 4.32162 20.9064 6.8433 20.9064 9.942V16.6621Z" fill="#317EF4"/>
</svg>
