<svg width="35" height="28" viewBox="0 0 35 28" fill="none" xmlns="http://www.w3.org/2000/svg">
<path d="M32.8019 16.8348C32.3841 16.5134 31.8978 16.2926 31.3809 16.1897C30.8639 16.0867 30.3302 16.1044 29.8211 16.2412L23.9495 17.5912C24.0861 17.0142 24.0904 16.4137 23.9619 15.8347C23.8334 15.2558 23.5755 14.7135 23.2076 14.2484C22.8397 13.7833 22.3713 13.4075 21.8375 13.1491C21.3038 12.8908 20.7184 12.7566 20.1254 12.7567H13.1002C12.5103 12.7552 11.9259 12.8707 11.3808 13.0964C10.8357 13.3221 10.3407 13.6535 9.92446 14.0716L6.75008 17.2474H2.72387C2.12837 17.2474 1.55725 17.484 1.13617 17.9051C0.71508 18.3262 0.478516 18.8973 0.478516 19.4928L0.478516 25.1062C0.478516 25.7017 0.71508 26.2728 1.13617 26.6939C1.55725 27.115 2.12837 27.3515 2.72387 27.3515H17.3187C17.4105 27.3515 17.5019 27.3402 17.591 27.3179L26.5724 25.0725C26.6296 25.0588 26.6855 25.04 26.7394 25.0164L32.1942 22.6952L32.256 22.6672C32.7802 22.4052 33.2291 22.0141 33.5604 21.5307C33.8918 21.0473 34.0946 20.4874 34.1497 19.904C34.2049 19.3205 34.1106 18.7326 33.8758 18.1957C33.641 17.6587 33.2733 17.1904 32.8075 16.8348H32.8019ZM2.72387 19.4928H6.09191V25.1062H2.72387V19.4928ZM31.2722 20.6449L25.9395 22.9155L17.1784 25.1062H8.33727V18.8346L11.513 15.6602C11.7208 15.4508 11.9681 15.2848 12.2406 15.1718C12.513 15.0588 12.8053 15.0011 13.1002 15.0021H20.1254C20.572 15.0021 21.0004 15.1795 21.3162 15.4953C21.632 15.8111 21.8094 16.2394 21.8094 16.6861C21.8094 17.1327 21.632 17.561 21.3162 17.8769C21.0004 18.1927 20.572 18.3701 20.1254 18.3701H16.196C15.8983 18.3701 15.6127 18.4884 15.4022 18.6989C15.1916 18.9095 15.0733 19.195 15.0733 19.4928C15.0733 19.7905 15.1916 20.0761 15.4022 20.2866C15.6127 20.4972 15.8983 20.6155 16.196 20.6155H20.6867C20.7712 20.6152 20.8555 20.6058 20.9379 20.5874L30.3404 18.4248L30.3839 18.4136C30.6709 18.3339 30.9773 18.3632 31.244 18.4958C31.5107 18.6284 31.719 18.855 31.8287 19.1319C31.9385 19.4089 31.9419 19.7166 31.8384 19.9959C31.7349 20.2752 31.5317 20.5064 31.268 20.6449H31.2722ZM23.4934 10.5113C23.7708 10.5117 24.0477 10.4891 24.3214 10.444C24.6292 11.3583 25.1924 12.1654 25.9444 12.7698C26.6964 13.3742 27.6057 13.7507 28.5649 13.8547C29.524 13.9586 30.4929 13.7858 31.3569 13.3566C32.221 12.9274 32.9441 12.2598 33.4407 11.4326C33.9373 10.6055 34.1867 9.65348 34.1594 8.68909C34.1321 7.72471 33.8293 6.7883 33.2867 5.99059C32.744 5.19287 31.9844 4.56721 31.0974 4.18756C30.2105 3.80792 29.2334 3.69017 28.2817 3.84824C27.9853 2.96728 27.4516 2.18517 26.7393 1.58797C26.0271 0.990779 25.1639 0.601651 24.2447 0.463414C23.3256 0.325177 22.3861 0.44319 21.5297 0.804466C20.6733 1.16574 19.9332 1.75628 19.3908 2.51108C18.8483 3.26588 18.5247 4.15569 18.4554 5.08259C18.3861 6.00949 18.5738 6.93754 18.998 7.76461C19.4221 8.59169 20.0662 9.28572 20.8593 9.77033C21.6525 10.2549 22.564 10.5114 23.4934 10.5113ZM31.9135 8.82732C31.9135 9.38244 31.7489 9.92508 31.4405 10.3866C31.1321 10.8482 30.6938 11.2079 30.1809 11.4204C29.6681 11.6328 29.1037 11.6884 28.5593 11.5801C28.0148 11.4718 27.5147 11.2045 27.1222 10.812C26.7297 10.4194 26.4624 9.91933 26.3541 9.37488C26.2458 8.83044 26.3014 8.2661 26.5138 7.75325C26.7262 7.24039 27.086 6.80204 27.5475 6.49364C28.0091 6.18523 28.5517 6.02062 29.1068 6.02062C29.8512 6.02062 30.5651 6.31633 31.0915 6.84269C31.6178 7.36905 31.9135 8.08294 31.9135 8.82732ZM23.4934 2.65259C24.1057 2.65289 24.7011 2.85341 25.1888 3.22358C25.6766 3.59374 26.0299 4.11325 26.1949 4.70288C25.6199 5.10746 25.1357 5.6276 24.7732 6.23003C24.4107 6.83245 24.178 7.50391 24.0899 8.20143C23.8939 8.24378 23.694 8.26541 23.4934 8.26598C22.7491 8.26598 22.0352 7.97028 21.5088 7.44392C20.9824 6.91756 20.6867 6.20367 20.6867 5.45929C20.6867 4.7149 20.9824 4.00101 21.5088 3.47465C22.0352 2.94829 22.7491 2.65259 23.4934 2.65259Z" fill="#317EF4"/>
</svg>
