<svg width="16" height="16" viewBox="0 0 16 16" fill="none" xmlns="http://www.w3.org/2000/svg">
<path d="M9.08873 14.517C9.08873 15.1206 8.59944 15.6105 7.99518 15.6105C7.39092 15.6105 6.90164 15.1206 6.90164 14.517C6.90164 13.9133 7.39092 13.4234 7.99518 13.4234C8.59944 13.4234 9.08873 13.9133 9.08873 14.517ZM7.99518 0.769531C7.30531 0.769531 6.74541 1.32943 6.74541 2.0193C6.74541 2.70917 7.30531 3.26906 7.99518 3.26906C8.68505 3.26906 9.24495 2.70917 9.24495 2.0193C9.24495 1.32943 8.68505 0.769531 7.99518 0.769531ZM14.244 7.48703C14.6746 7.48703 15.0245 7.83759 15.0245 8.26813C15.0245 8.6993 14.6746 9.04924 14.244 9.04924C13.8128 9.04924 13.4635 8.69992 13.4635 8.26813C13.4635 7.83759 13.8128 7.48703 14.244 7.48703ZM0.496582 8.26813C0.496582 8.95863 1.05648 9.5179 1.74635 9.5179C2.43622 9.5179 2.99612 8.95863 2.99612 8.26813C2.99612 7.57826 2.43622 7.01836 1.74635 7.01836C1.05648 7.01836 0.496582 7.57826 0.496582 8.26813ZM12.3694 3.26906C12.7137 3.26906 12.9942 3.54964 12.9942 3.89395C12.9942 4.23951 12.7137 4.52008 12.3694 4.51883C12.0251 4.51883 11.7445 4.23951 11.7445 3.8952C11.7445 3.54964 12.0251 3.26906 12.3694 3.26906ZM12.3694 11.705C12.8868 11.705 13.3067 12.1249 13.3067 12.6423C13.3067 13.1597 12.8868 13.5803 12.3681 13.5796C11.852 13.5796 11.432 13.1603 11.432 12.6429C11.432 12.1249 11.852 11.705 12.3694 11.705ZM3.621 2.64418C4.31087 2.64418 4.87077 3.20408 4.87077 3.89395C4.87077 4.58382 4.31087 5.14371 3.62037 5.14371C2.93113 5.14371 2.37123 4.58444 2.37123 3.89395C2.37123 3.20345 2.93113 2.64418 3.621 2.64418ZM3.621 11.3925C4.31087 11.3925 4.87077 11.9524 4.87077 12.6423C4.87077 13.3322 4.31087 13.8921 3.62037 13.8921C2.93113 13.8921 2.37123 13.3328 2.37123 12.6423C2.37123 11.9518 2.93113 11.3925 3.621 11.3925Z" fill="#8E2BFF"/>
</svg>
