<svg width="22" height="20" viewBox="0 0 22 20" fill="none" xmlns="http://www.w3.org/2000/svg">
<path d="M12.4564 0.759766C12.7164 0.759766 12.9764 0.819766 13.2264 0.909766L20.5864 3.95977C21.0756 4.16011 21.4652 4.54654 21.6696 5.0341C21.874 5.52166 21.8765 6.07043 21.6764 6.55977L16.7164 18.5098C16.5698 18.8722 16.3203 19.1838 15.9986 19.4059C15.6769 19.6281 15.2972 19.7511 14.9064 19.7598C14.6464 19.7598 14.3764 19.7298 14.1164 19.6098L6.74636 16.5598C6.39064 16.4088 6.08569 16.159 5.86768 15.8399C5.64966 15.5209 5.52774 15.146 5.51636 14.7598C5.50636 14.5098 5.55636 14.2198 5.64636 13.9598L10.6464 2.00977C10.7872 1.64347 11.0354 1.32821 11.3583 1.10519C11.6812 0.882174 12.0639 0.761786 12.4564 0.759766ZM8.97636 0.759766L5.52636 9.10977V2.75977C5.52636 2.22933 5.73707 1.72062 6.11214 1.34555C6.48722 0.970479 6.99592 0.759766 7.52636 0.759766M3.51636 2.29977V11.3298L1.08636 5.46977C0.986732 5.22753 0.935907 4.96801 0.936796 4.70609C0.937685 4.44418 0.990271 4.18501 1.09154 3.94346C1.1928 3.7019 1.34076 3.48272 1.52692 3.29847C1.71307 3.11422 1.93377 2.96854 2.17636 2.86977M12.4564 2.72977L7.47636 14.7498L14.8664 17.8098L19.8464 5.79977" fill="#FF0808"/>
</svg>
