<svg width="27" height="29" viewBox="0 0 27 29" fill="none" xmlns="http://www.w3.org/2000/svg">
<path d="M12.49 15.0045V7.90081H10.4931C8.28108 7.90081 7.11504 6.46657 7.11504 5.07293C7.11504 3.62554 8.18729 2.76774 9.62153 2.76774C11.2702 2.76774 12.5569 4.04071 12.5569 6.17206V7.90081H14.7952V6.17206C14.7952 4.04071 16.0819 2.76774 17.7306 2.76774C19.1648 2.76774 20.2502 3.62554 20.2502 5.07236C20.2502 6.46657 19.0436 7.90081 16.8591 7.90081H14.8621V15.0051H24.3116C25.7722 15.0051 26.5631 14.4424 26.5631 13.0081V9.89833C26.5631 8.47782 25.7722 7.90138 24.3116 7.90138H21.1887C22.0196 7.15109 22.5154 6.13203 22.5154 4.97915C22.5154 2.3926 20.4647 0.530029 17.8644 0.530029C15.9344 0.530029 14.3663 1.60171 13.6829 3.50545C12.999 1.60228 11.4178 0.530029 9.48771 0.530029C6.90059 0.530029 4.83673 2.3926 4.83673 4.97915C4.83673 6.13203 5.31938 7.15109 6.16346 7.90138H3.04107C1.66001 7.90138 0.789062 8.47782 0.789062 9.89833V13.0081C0.789062 14.4424 1.59311 15.0051 3.0405 15.0051L12.49 15.0045ZM12.49 28.8631V16.4388H2.70538V25.4588C2.70538 27.6971 4.01896 28.8631 6.25724 28.8631H12.49ZM14.8621 16.4388V28.8631H21.0949C23.3332 28.8631 24.6462 27.6971 24.6462 25.4588V16.4388H14.8621Z" fill="url(#paint0_linear_289_6473)"/>
<defs>
<linearGradient id="paint0_linear_289_6473" x1="13.6761" y1="0.530029" x2="13.6761" y2="28.8631" gradientUnits="userSpaceOnUse">
<stop stop-color="#A4A4A4"/>
<stop offset="0.486776" stop-color="#D6D6D6"/>
<stop offset="1" stop-color="#8E8E8E"/>
</linearGradient>
</defs>
</svg>
