<svg width="18" height="14" viewBox="0 0 18 14" fill="none" xmlns="http://www.w3.org/2000/svg">
    <path
        d="M1 4.29587C1 2.59654 1 1.74727 1.46209 1.21895C1.92418 0.690618 2.66699 0.691406 4.1542 0.691406H13.6168C15.104 0.691406 15.8468 0.691406 16.3089 1.21973C16.771 1.74649 16.771 2.59575 16.771 4.29508V9.70295C16.771 11.4023 16.771 12.2515 16.3089 12.7799C15.8468 13.3082 15.104 13.3082 13.6168 13.3082H4.1542C2.66699 13.3082 1.92418 13.3082 1.46209 12.7799C1 12.2531 1 11.4039 1 9.70453V4.29587Z"
        stroke="#8E2BFF" stroke-width="1.18282" stroke-linecap="round" stroke-linejoin="round" />
    <path
        d="M8.88551 8.57705C9.75652 8.57705 10.4626 7.87096 10.4626 6.99995C10.4626 6.12894 9.75652 5.42285 8.88551 5.42285C8.0145 5.42285 7.30841 6.12894 7.30841 6.99995C7.30841 7.87096 8.0145 8.57705 8.88551 8.57705Z"
        stroke="#8E2BFF" stroke-width="1.18282" stroke-linecap="round" stroke-linejoin="round" />
    <path
        d="M8.8855 5.42224V1.47949M8.8855 8.57644V12.5192M16.771 4.63369H14.7996C14.5905 4.63369 14.3899 4.71677 14.242 4.86465C14.0941 5.01253 14.0111 5.2131 14.0111 5.42224V8.57644C14.0111 8.78558 14.0941 8.98615 14.242 9.13403C14.3899 9.28191 14.5905 9.36499 14.7996 9.36499H16.771M1 4.63369H2.97137C3.18051 4.63369 3.38108 4.71677 3.52896 4.86465C3.67684 5.01253 3.75992 5.2131 3.75992 5.42224V8.57644C3.75992 8.78558 3.67684 8.98615 3.52896 9.13403C3.38108 9.28191 3.18051 9.36499 2.97137 9.36499H1"
        stroke="#8E2BFF" stroke-width="1.18282" stroke-linecap="round" stroke-linejoin="round" />
</svg>