<svg width="28" height="28" viewBox="0 0 28 28" fill="none" xmlns="http://www.w3.org/2000/svg">
<path d="M13.6399 20.8984L15.7647 16.2403L20.4501 14.0883L15.7647 11.9635L13.6399 7.27807L11.5015 11.9635L6.82972 14.0883L11.5015 16.2403L13.6399 20.8984ZM8.4233 1.50304C10.0783 0.821954 11.8503 0.470336 13.6399 0.467896C15.4242 0.467896 17.1948 0.822025 18.8565 1.50304C20.5046 2.18406 22.0028 3.19197 23.2695 4.45866C24.5362 5.72535 25.5441 7.22359 26.2251 8.87166C26.9061 10.5333 27.2603 12.304 27.2603 14.0883C27.2603 17.6976 25.8301 21.1708 23.2695 23.7178C22.0064 24.9845 20.5054 25.9891 18.8529 26.674C17.2003 27.3589 15.4287 27.7105 13.6399 27.7086C11.8503 27.7062 10.0783 27.3546 8.4233 26.6735C6.7726 25.9874 5.27309 24.9831 4.0103 23.7178C2.74364 22.4547 1.73902 20.9538 1.05416 19.3012C0.369296 17.6487 0.0176906 15.8771 0.0195385 14.0883C0.0195385 10.4789 1.44968 7.00567 4.0103 4.45866C5.277 3.19197 6.77524 2.18406 8.4233 1.50304ZM5.93077 21.7974C7.97383 23.8404 10.7524 24.9845 13.6399 24.9845C16.5274 24.9845 19.306 23.8404 21.349 21.7974C23.3921 19.7543 24.5362 16.9758 24.5362 14.0883C24.5362 11.2007 23.3921 8.42218 21.349 6.37913C20.3363 5.36758 19.1343 4.56546 17.8115 4.0186C16.4888 3.47173 15.0712 3.19084 13.6399 3.19197C10.7524 3.19197 7.97383 4.33608 5.93077 6.37913C4.91922 7.39181 4.1171 8.59386 3.57024 9.91661C3.02338 11.2394 2.74248 12.6569 2.74361 14.0883C2.74361 16.9758 3.88772 19.7543 5.93077 21.7974Z" fill="white"/>
</svg>
