<svg width="22" height="22" viewBox="0 0 22 22" fill="none" xmlns="http://www.w3.org/2000/svg">
<path fill-rule="evenodd" clip-rule="evenodd" d="M11 22C17.0751 22 22 17.0751 22 11C22 4.92487 17.0751 0 11 0C4.92487 0 0 4.92487 0 11C0 17.0751 4.92487 22 11 22ZM8.62986 12.9806H10.5C10.7357 12.9806 10.8536 12.9806 10.9268 13.0538C11 13.127 11 13.2449 11 13.4806V18.6305C11 19.5211 11 19.9665 11.1962 20.0097C11.3925 20.0529 11.5795 19.6488 11.9537 18.8405L15.1851 11.8608C15.7768 10.5827 16.0726 9.94367 15.7777 9.48213C15.4828 9.02059 14.7786 9.02059 13.3701 9.02059H11.5C11.2643 9.02059 11.1464 9.02059 11.0732 8.94736C11 8.87414 11 8.75629 11 8.52059V3.37071C11 2.48005 11 2.03472 10.8038 1.9915C10.6075 1.94828 10.4205 2.3524 10.0463 3.16064L10.0463 3.16065L6.81493 10.1403C6.22321 11.4184 5.92735 12.0575 6.22228 12.519C6.51721 12.9806 7.22143 12.9806 8.62986 12.9806Z" fill="#8E2BFF"/>
</svg>
