<svg width="19" height="14" viewBox="0 0 19 14" fill="none" xmlns="http://www.w3.org/2000/svg">
    <mask id="path-1-inside-1_271_6773" fill="white">
        <path fillRule="evenodd" clipRule="evenodd"
            d="M0.661682 0.807434C0.930619 0.538577 1.26312 0.342016 1.62832 0.235994C1.99352 0.129972 2.37958 0.117926 2.75068 0.200973C3.12178 0.28402 3.46588 0.459468 3.75106 0.711035C4.03624 0.962602 4.25324 1.28213 4.38193 1.63997C5.4895 1.19775 6.69958 1.07789 7.87239 1.29424C9.04519 1.51058 10.1329 2.05431 11.0097 2.8626L11.1967 3.04139L18.22 10.0656C18.3755 10.2211 18.4689 10.428 18.4827 10.6474C18.4965 10.8669 18.4297 11.0838 18.2949 11.2575L18.22 11.3424L16.3048 13.2576C16.1695 13.393 15.9947 13.4818 15.8056 13.5113C15.6165 13.5409 15.423 13.5096 15.2528 13.422L15.1526 13.3615L11.9163 11.1221C10.9914 12.4629 9.58454 13.3948 7.98919 13.7236C6.39383 14.0524 4.73315 13.7526 3.35347 12.8867C1.97379 12.0208 0.981636 10.6558 0.583927 9.07617C0.186219 7.49659 0.41366 5.82446 1.21882 4.40849C0.903623 4.24516 0.631393 4.0098 0.424232 3.72151C0.217071 3.43323 0.0808197 3.10015 0.0265422 2.74933C-0.0277352 2.3985 0.00149129 2.03982 0.111849 1.70241C0.222206 1.365 0.410583 1.05838 0.661682 0.807434ZM3.53494 4.3191C3.07014 4.78488 2.71277 5.34663 2.48785 5.96502C2.26293 6.58341 2.17591 7.24348 2.23287 7.89904C2.28982 8.55459 2.48939 9.18977 2.81759 9.7601C3.14579 10.3304 3.59469 10.8221 4.13286 11.2008C4.67103 11.5794 5.28546 11.8358 5.93314 11.9521C6.58081 12.0683 7.24606 12.0416 7.88232 11.8738C8.51858 11.7059 9.11046 11.4011 9.61653 10.9805C10.1226 10.5599 10.5306 10.0338 10.812 9.43895C10.8679 9.32042 10.949 9.21549 11.0495 9.13143C11.15 9.04737 11.2677 8.9862 11.3942 8.95218C11.5208 8.91815 11.6532 8.91209 11.7824 8.9344C11.9115 8.95671 12.0343 9.00686 12.1421 9.08137L15.5607 11.4472L16.3048 10.704L9.91986 4.3191C9.07316 3.47241 7.9248 2.99675 6.7274 2.99675C5.53 2.99675 4.38164 3.47241 3.53494 4.3191ZM8.64215 5.5959C8.89709 5.84666 9.09986 6.14542 9.23876 6.47493C9.37766 6.80445 9.44995 7.15821 9.45144 7.5158C9.45294 7.8734 9.38363 8.22775 9.24749 8.55842C9.11136 8.88909 8.9111 9.18953 8.65827 9.44242C8.40544 9.69531 8.10504 9.89564 7.77441 10.0318C7.44377 10.1681 7.08943 10.2375 6.73184 10.236C6.37425 10.2346 6.02047 10.1624 5.69092 10.0236C5.36137 9.88479 5.06257 9.68209 4.81175 9.42721C4.30368 8.91915 4.01825 8.23007 4.01825 7.51156C4.01825 6.79305 4.30368 6.10396 4.81175 5.5959C5.31981 5.08784 6.00889 4.80241 6.7274 4.80241C7.44591 4.80241 8.13499 5.08784 8.64306 5.5959M6.08945 6.87361C6.00321 6.9569 5.93442 7.05654 5.88709 7.16671C5.83977 7.27687 5.81486 7.39536 5.81382 7.51526C5.81278 7.63515 5.83562 7.75406 5.88103 7.86503C5.92643 7.976 5.99348 8.07682 6.07826 8.1616C6.16304 8.24638 6.26386 8.31343 6.37483 8.35883C6.4858 8.40424 6.60471 8.42708 6.7246 8.42604C6.8445 8.425 6.96299 8.40009 7.07315 8.35277C7.18332 8.30544 7.28296 8.23665 7.36625 8.15041C7.53569 7.98109 7.63092 7.75141 7.63101 7.51187C7.63109 7.27234 7.53602 7.04259 7.36671 6.87315C7.19739 6.70372 6.9677 6.60848 6.72817 6.6084C6.48864 6.60832 6.25889 6.70339 6.08945 6.8727M2.57779 2.08333C2.53614 2.04021 2.48632 2.00582 2.43124 1.98216C2.37616 1.95849 2.31691 1.94604 2.25697 1.94552C2.19702 1.945 2.13757 1.95642 2.08208 1.97912C2.02659 2.00182 1.97618 2.03535 1.93379 2.07774C1.8914 2.12013 1.85788 2.17054 1.83518 2.22603C1.81247 2.28151 1.80105 2.34096 1.80157 2.40091C1.80209 2.46086 1.81455 2.5201 1.83821 2.57519C1.86187 2.63027 1.89627 2.68009 1.93939 2.72174C2.02454 2.80398 2.13859 2.84949 2.25697 2.84846C2.37534 2.84743 2.48858 2.79995 2.57229 2.71624C2.656 2.63253 2.70348 2.51929 2.70451 2.40091C2.70554 2.28253 2.66003 2.16849 2.57779 2.08333Z" />
    </mask>
    <path fillRule="evenodd" clipRule="evenodd"
        d="M0.661682 0.807434C0.930619 0.538577 1.26312 0.342016 1.62832 0.235994C1.99352 0.129972 2.37958 0.117926 2.75068 0.200973C3.12178 0.28402 3.46588 0.459468 3.75106 0.711035C4.03624 0.962602 4.25324 1.28213 4.38193 1.63997C5.4895 1.19775 6.69958 1.07789 7.87239 1.29424C9.04519 1.51058 10.1329 2.05431 11.0097 2.8626L11.1967 3.04139L18.22 10.0656C18.3755 10.2211 18.4689 10.428 18.4827 10.6474C18.4965 10.8669 18.4297 11.0838 18.2949 11.2575L18.22 11.3424L16.3048 13.2576C16.1695 13.393 15.9947 13.4818 15.8056 13.5113C15.6165 13.5409 15.423 13.5096 15.2528 13.422L15.1526 13.3615L11.9163 11.1221C10.9914 12.4629 9.58454 13.3948 7.98919 13.7236C6.39383 14.0524 4.73315 13.7526 3.35347 12.8867C1.97379 12.0208 0.981636 10.6558 0.583927 9.07617C0.186219 7.49659 0.41366 5.82446 1.21882 4.40849C0.903623 4.24516 0.631393 4.0098 0.424232 3.72151C0.217071 3.43323 0.0808197 3.10015 0.0265422 2.74933C-0.0277352 2.3985 0.00149129 2.03982 0.111849 1.70241C0.222206 1.365 0.410583 1.05838 0.661682 0.807434ZM3.53494 4.3191C3.07014 4.78488 2.71277 5.34663 2.48785 5.96502C2.26293 6.58341 2.17591 7.24348 2.23287 7.89904C2.28982 8.55459 2.48939 9.18977 2.81759 9.7601C3.14579 10.3304 3.59469 10.8221 4.13286 11.2008C4.67103 11.5794 5.28546 11.8358 5.93314 11.9521C6.58081 12.0683 7.24606 12.0416 7.88232 11.8738C8.51858 11.7059 9.11046 11.4011 9.61653 10.9805C10.1226 10.5599 10.5306 10.0338 10.812 9.43895C10.8679 9.32042 10.949 9.21549 11.0495 9.13143C11.15 9.04737 11.2677 8.9862 11.3942 8.95218C11.5208 8.91815 11.6532 8.91209 11.7824 8.9344C11.9115 8.95671 12.0343 9.00686 12.1421 9.08137L15.5607 11.4472L16.3048 10.704L9.91986 4.3191C9.07316 3.47241 7.9248 2.99675 6.7274 2.99675C5.53 2.99675 4.38164 3.47241 3.53494 4.3191ZM8.64215 5.5959C8.89709 5.84666 9.09986 6.14542 9.23876 6.47493C9.37766 6.80445 9.44995 7.15821 9.45144 7.5158C9.45294 7.8734 9.38363 8.22775 9.24749 8.55842C9.11136 8.88909 8.9111 9.18953 8.65827 9.44242C8.40544 9.69531 8.10504 9.89564 7.77441 10.0318C7.44377 10.1681 7.08943 10.2375 6.73184 10.236C6.37425 10.2346 6.02047 10.1624 5.69092 10.0236C5.36137 9.88479 5.06257 9.68209 4.81175 9.42721C4.30368 8.91915 4.01825 8.23007 4.01825 7.51156C4.01825 6.79305 4.30368 6.10396 4.81175 5.5959C5.31981 5.08784 6.00889 4.80241 6.7274 4.80241C7.44591 4.80241 8.13499 5.08784 8.64306 5.5959M6.08945 6.87361C6.00321 6.9569 5.93442 7.05654 5.88709 7.16671C5.83977 7.27687 5.81486 7.39536 5.81382 7.51526C5.81278 7.63515 5.83562 7.75406 5.88103 7.86503C5.92643 7.976 5.99348 8.07682 6.07826 8.1616C6.16304 8.24638 6.26386 8.31343 6.37483 8.35883C6.4858 8.40424 6.60471 8.42708 6.7246 8.42604C6.8445 8.425 6.96299 8.40009 7.07315 8.35277C7.18332 8.30544 7.28296 8.23665 7.36625 8.15041C7.53569 7.98109 7.63092 7.75141 7.63101 7.51187C7.63109 7.27234 7.53602 7.04259 7.36671 6.87315C7.19739 6.70372 6.9677 6.60848 6.72817 6.6084C6.48864 6.60832 6.25889 6.70339 6.08945 6.8727M2.57779 2.08333C2.53614 2.04021 2.48632 2.00582 2.43124 1.98216C2.37616 1.95849 2.31691 1.94604 2.25697 1.94552C2.19702 1.945 2.13757 1.95642 2.08208 1.97912C2.02659 2.00182 1.97618 2.03535 1.93379 2.07774C1.8914 2.12013 1.85788 2.17054 1.83518 2.22603C1.81247 2.28151 1.80105 2.34096 1.80157 2.40091C1.80209 2.46086 1.81455 2.5201 1.83821 2.57519C1.86187 2.63027 1.89627 2.68009 1.93939 2.72174C2.02454 2.80398 2.13859 2.84949 2.25697 2.84846C2.37534 2.84743 2.48858 2.79995 2.57229 2.71624C2.656 2.63253 2.70348 2.51929 2.70451 2.40091C2.70554 2.28253 2.66003 2.16849 2.57779 2.08333Z"
        fill="#8E2BFF" />
    <path
        d="M0.661682 0.807434L0.80306 0.948899L0.803083 0.948876L0.661682 0.807434ZM4.38193 1.63997L4.19373 1.70766L4.2638 1.90249L4.45609 1.82572L4.38193 1.63997ZM11.0097 2.8626L11.148 2.71805L11.1453 2.71554L11.0097 2.8626ZM11.1967 3.04139L11.3381 2.89994L11.3349 2.89686L11.1967 3.04139ZM18.22 10.0656L18.0786 10.207L18.0786 10.207L18.22 10.0656ZM18.2949 11.2575L18.4452 11.3902L18.453 11.3801L18.2949 11.2575ZM18.22 11.3424L18.3617 11.4841L18.3699 11.4748L18.22 11.3424ZM16.3048 13.2576L16.1634 13.1162L16.1633 13.1162L16.3048 13.2576ZM15.2528 13.422L15.1492 13.5936L15.1613 13.5998L15.2528 13.422ZM15.1526 13.3615L15.0386 13.5262L15.0492 13.5327L15.1526 13.3615ZM11.9163 11.1221L12.0301 10.9576L11.8654 10.8437L11.7517 11.0085L11.9163 11.1221ZM1.21882 4.40849L1.39267 4.50735L1.49546 4.32659L1.31083 4.23092L1.21882 4.40849ZM3.53494 4.3191L3.39352 4.17767L3.39337 4.17782L3.53494 4.3191ZM10.812 9.43895L10.9928 9.52448L10.9929 9.52428L10.812 9.43895ZM12.1421 9.08137L12.2559 8.91691L12.2558 8.91685L12.1421 9.08137ZM15.5607 11.4472L15.4469 11.6116L15.5841 11.7065L15.7021 11.5887L15.5607 11.4472ZM16.3048 10.704L16.4461 10.8455L16.5877 10.7041L16.4462 10.5626L16.3048 10.704ZM9.91986 4.3191L10.0613 4.17767L10.0613 4.17767L9.91986 4.3191ZM4.81175 9.42721L4.9543 9.28693L4.95317 9.28579L4.81175 9.42721ZM4.01825 7.51156H3.81825H4.01825ZM6.7274 4.80241V5.00241V4.80241ZM6.07826 8.1616L5.93684 8.30302L6.07826 8.1616ZM7.36625 8.15041L7.22486 8.00892L7.2224 8.01147L7.36625 8.15041ZM2.57779 2.08333L2.43393 2.22228L2.57779 2.08333ZM1.93939 2.72174L2.07833 2.57788L1.93939 2.72174ZM0.803083 0.948876C1.04819 0.703839 1.35123 0.524693 1.68408 0.428064L1.57256 0.0439243C1.175 0.159339 0.813046 0.373315 0.520282 0.665992L0.803083 0.948876ZM1.68408 0.428064C2.01692 0.331435 2.36878 0.320456 2.707 0.396145L2.79436 0.00580016C2.39038 -0.0846044 1.97011 -0.0714907 1.57256 0.0439243L1.68408 0.428064ZM2.707 0.396145C3.04522 0.471835 3.35884 0.631739 3.61875 0.861018L3.88337 0.561052C3.57293 0.287197 3.19833 0.0962047 2.79436 0.00580016L2.707 0.396145ZM3.61875 0.861018C3.87866 1.0903 4.07644 1.38152 4.19373 1.70766L4.57013 1.57229C4.43004 1.18275 4.19381 0.834907 3.88337 0.561052L3.61875 0.861018ZM4.45609 1.82572C5.52862 1.39749 6.70041 1.28142 7.8361 1.49092L7.90867 1.09755C6.69875 0.874362 5.45038 0.998017 4.30777 1.45423L4.45609 1.82572ZM7.8361 1.49092C8.9718 1.70042 10.0251 2.22694 10.8742 3.00966L11.1453 2.71554C10.2407 1.88167 9.11858 1.32074 7.90867 1.09755L7.8361 1.49092ZM10.8715 3.00713L11.0584 3.18592L11.3349 2.89686L11.148 2.71807L10.8715 3.00713ZM11.0552 3.1828L18.0786 10.207L18.3614 9.9242L11.3381 2.89998L11.0552 3.1828ZM18.0786 10.207C18.1996 10.3281 18.2723 10.4891 18.283 10.66L18.6823 10.6349C18.6654 10.3668 18.5513 10.1141 18.3614 9.9242L18.0786 10.207ZM18.283 10.66C18.2938 10.8308 18.2418 10.9997 18.1369 11.135L18.453 11.3801C18.6176 11.1679 18.6991 10.9029 18.6823 10.6349L18.283 10.66ZM18.145 11.1252L18.0701 11.21L18.3699 11.4748L18.4449 11.3899L18.145 11.1252ZM18.0786 11.201L16.1634 13.1162L16.4462 13.399L18.3614 11.4838L18.0786 11.201ZM16.1633 13.1162C16.058 13.2216 15.9219 13.2907 15.7747 13.3137L15.8365 13.7089C16.0674 13.6729 16.2809 13.5643 16.4462 13.399L16.1633 13.1162ZM15.7747 13.3137C15.6275 13.3367 15.4768 13.3124 15.3444 13.2442L15.1613 13.5998C15.3691 13.7068 15.6055 13.745 15.8365 13.7089L15.7747 13.3137ZM15.3562 13.2507L15.2559 13.1902L15.0492 13.5327L15.1495 13.5932L15.3562 13.2507ZM15.2664 13.197L12.0301 10.9576L11.8025 11.2866L15.0388 13.5259L15.2664 13.197ZM11.7517 11.0085C10.856 12.3069 9.4937 13.2094 7.94882 13.5277L8.02955 13.9195C9.67539 13.5803 11.1268 12.6189 12.081 11.2357L11.7517 11.0085ZM7.94882 13.5277C6.40395 13.8461 4.79581 13.5558 3.45978 12.7173L3.24715 13.0561C4.67049 13.9494 6.38372 14.2587 8.02955 13.9195L7.94882 13.5277ZM3.45978 12.7173C2.12376 11.8788 1.163 10.5569 0.777874 9.02734L0.38998 9.125C0.800273 10.7546 1.82382 12.1628 3.24715 13.0561L3.45978 12.7173ZM0.777874 9.02734C0.39275 7.49774 0.612994 5.87851 1.39267 4.50735L1.04496 4.30963C0.214326 5.7704 -0.0203121 7.49545 0.38998 9.125L0.777874 9.02734ZM1.31083 4.23092C1.02357 4.08206 0.775454 3.86754 0.586647 3.6048L0.261817 3.83822C0.487332 4.15205 0.783681 4.40826 1.1268 4.58606L1.31083 4.23092ZM0.586647 3.6048C0.397839 3.34206 0.273659 3.03849 0.224191 2.71875L-0.171106 2.7799C-0.11202 3.16181 0.0363027 3.5244 0.261817 3.83822L0.586647 3.6048ZM0.224191 2.71875C0.174722 2.399 0.201359 2.0721 0.301939 1.76459L-0.078242 1.64024C-0.198377 2.00754 -0.230192 2.398 -0.171106 2.7799L0.224191 2.71875ZM0.301939 1.76459C0.402519 1.45707 0.574207 1.17761 0.80306 0.948899L0.520305 0.665969C0.246959 0.939145 0.0418927 1.27294 -0.078242 1.64024L0.301939 1.76459ZM3.39337 4.17782C2.90798 4.66424 2.53478 5.25087 2.2999 5.89665L2.67581 6.03338C2.89076 5.44238 3.2323 4.90552 3.67651 4.46037L3.39337 4.17782ZM2.2999 5.89665C2.06502 6.54244 1.97414 7.23176 2.03362 7.91635L2.43212 7.88173C2.37768 7.25521 2.46085 6.62437 2.67581 6.03338L2.2999 5.89665ZM2.03362 7.91635C2.0931 8.60094 2.3015 9.26426 2.64424 9.85985L2.99094 9.66035C2.67728 9.11528 2.48655 8.50824 2.43212 7.88173L2.03362 7.91635ZM2.64424 9.85985C2.98698 10.4554 3.45577 10.9689 4.01778 11.3643L4.24794 11.0372C3.73361 10.6753 3.3046 10.2054 2.99094 9.66035L2.64424 9.85985ZM4.01778 11.3643C4.57979 11.7597 5.22144 12.0275 5.8978 12.1489L5.96847 11.7552C5.34949 11.6441 4.76228 11.3991 4.24794 11.0372L4.01778 11.3643ZM5.8978 12.1489C6.57416 12.2703 7.26889 12.2424 7.93333 12.0672L7.83131 11.6804C7.22323 11.8408 6.58745 11.8663 5.96847 11.7552L5.8978 12.1489ZM7.93333 12.0672C8.59777 11.8919 9.21588 11.5735 9.74436 11.1343L9.48869 10.8267C9.00505 11.2286 8.43938 11.52 7.83131 11.6804L7.93333 12.0672ZM9.74436 11.1343C10.2728 10.6951 10.6989 10.1456 10.9928 9.52448L10.6312 9.35342C10.3623 9.92189 9.97234 10.4247 9.48869 10.8267L9.74436 11.1343ZM10.9929 9.52428C11.0364 9.432 11.0995 9.35031 11.1778 9.28487L10.9212 8.97799C10.7984 9.08066 10.6994 9.20884 10.6311 9.35363L10.9929 9.52428ZM11.1778 9.28487C11.2561 9.21943 11.3476 9.17181 11.4462 9.14532L11.3423 8.75904C11.1877 8.8006 11.044 8.87531 10.9212 8.97799L11.1778 9.28487ZM11.4462 9.14532C11.5447 9.11883 11.6478 9.11411 11.7483 9.13148L11.8164 8.73732C11.6587 8.71006 11.4969 8.71747 11.3423 8.75904L11.4462 9.14532ZM11.7483 9.13148C11.8489 9.14885 11.9444 9.18789 12.0284 9.2459L12.2558 8.91685C12.1241 8.82583 11.9742 8.76457 11.8164 8.73732L11.7483 9.13148ZM12.0283 9.24583L15.4469 11.6116L15.6745 11.2827L12.2559 8.91691L12.0283 9.24583ZM15.7021 11.5887L16.4461 10.8455L16.1634 10.5625L15.4194 11.3057L15.7021 11.5887ZM16.4462 10.5626L10.0613 4.17767L9.77844 4.46052L16.1634 10.8454L16.4462 10.5626ZM10.0613 4.17767C9.17708 3.29348 7.97785 2.79675 6.7274 2.79675V3.19675C7.87176 3.19675 8.96925 3.65134 9.77844 4.46052L10.0613 4.17767ZM6.7274 2.79675C5.47696 2.79675 4.27773 3.29348 3.39352 4.17767L3.67636 4.46052C4.48555 3.65134 5.58304 3.19675 6.7274 3.19675V2.79675ZM8.50191 5.73848C8.73802 5.97073 8.92582 6.24743 9.05447 6.55262L9.42306 6.39725C9.2739 6.0434 9.05616 5.72259 8.7824 5.45331L8.50191 5.73848ZM9.05447 6.55262C9.18311 6.85781 9.25006 7.18545 9.25145 7.51664L9.65144 7.51497C9.64983 7.13097 9.57221 6.75109 9.42306 6.39725L9.05447 6.55262ZM9.25145 7.51664C9.25283 7.84783 9.18863 8.17602 9.06255 8.48228L9.43243 8.63456C9.57862 8.27947 9.65305 7.89896 9.65144 7.51497L9.25145 7.51664ZM9.06255 8.48228C8.93647 8.78854 8.75099 9.0668 8.51683 9.30102L8.79971 9.58383C9.0712 9.31227 9.28625 8.98964 9.43243 8.63456L9.06255 8.48228ZM8.51683 9.30102C8.28267 9.53523 8.00445 9.72077 7.69822 9.84693L7.85059 10.2168C8.20564 10.0705 8.52821 9.85538 8.79971 9.58383L8.51683 9.30102ZM7.69822 9.84693C7.392 9.97308 7.06382 10.0374 6.73263 10.0361L6.73105 10.436C7.11504 10.4376 7.49554 10.363 7.85059 10.2168L7.69822 9.84693ZM6.73263 10.0361C6.40144 10.0347 6.07378 9.96787 5.76856 9.8393L5.61328 10.2079C5.96716 10.357 6.34705 10.4345 6.73105 10.436L6.73263 10.0361ZM5.76856 9.8393C5.46334 9.71072 5.1866 9.52299 4.9543 9.28693L4.66919 9.5675C4.93853 9.84119 5.2594 10.0589 5.61328 10.2079L5.76856 9.8393ZM4.95317 9.28579C4.48261 8.81524 4.21825 8.17702 4.21825 7.51156H3.81825C3.81825 8.28311 4.12475 9.02306 4.67032 9.56863L4.95317 9.28579ZM4.21825 7.51156C4.21825 6.84609 4.48261 6.20788 4.95317 5.73732L4.67032 5.45448C4.12475 6.00005 3.81825 6.74 3.81825 7.51156H4.21825ZM4.95317 5.73732C5.42372 5.26676 6.06193 5.00241 6.7274 5.00241V4.60241C5.95585 4.60241 5.2159 4.90891 4.67032 5.45448L4.95317 5.73732ZM6.7274 5.00241C7.39287 5.00241 8.03108 5.26676 8.50164 5.73732L8.78448 5.45448C8.23891 4.90891 7.49896 4.60241 6.7274 4.60241V5.00241ZM5.95051 6.72975C5.84516 6.83149 5.76114 6.9532 5.70333 7.08777L6.07086 7.24565C6.1077 7.15988 6.16125 7.08231 6.22839 7.01746L5.95051 6.72975ZM5.70333 7.08777C5.64552 7.22234 5.6151 7.36707 5.61383 7.51352L6.01381 7.517C6.01462 7.42365 6.03401 7.33141 6.07086 7.24565L5.70333 7.08777ZM5.61383 7.51352C5.61255 7.65997 5.64046 7.80521 5.69592 7.94076L6.06613 7.7893C6.03079 7.7029 6.013 7.61034 6.01381 7.517L5.61383 7.51352ZM5.69592 7.94076C5.75138 8.07631 5.83328 8.19946 5.93684 8.30302L6.21968 8.02018C6.15368 7.95418 6.10148 7.87569 6.06613 7.7893L5.69592 7.94076ZM5.93684 8.30302C6.0404 8.40658 6.16355 8.48848 6.2991 8.54394L6.45057 8.17373C6.36417 8.13838 6.28569 8.08618 6.21968 8.02018L5.93684 8.30302ZM6.2991 8.54394C6.43465 8.5994 6.57989 8.62731 6.72634 8.62603L6.72287 8.22605C6.62953 8.22686 6.53696 8.20907 6.45057 8.17373L6.2991 8.54394ZM6.72634 8.62603C6.87279 8.62476 7.01753 8.59433 7.15209 8.53653L6.99422 8.169C6.90845 8.20585 6.81621 8.22524 6.72287 8.22605L6.72634 8.62603ZM7.15209 8.53653C7.28666 8.47872 7.40837 8.3947 7.51011 8.28935L7.2224 8.01147C7.15755 8.07861 7.07998 8.13216 6.99422 8.169L7.15209 8.53653ZM7.50763 8.29188C7.71458 8.08507 7.8309 7.80452 7.83101 7.51195L7.43101 7.5118C7.43094 7.69829 7.3568 7.87712 7.22488 8.00894L7.50763 8.29188ZM7.83101 7.51195C7.83111 7.21937 7.71499 6.93874 7.50818 6.73178L7.22524 7.01452C7.35706 7.14644 7.43107 7.32531 7.43101 7.5118L7.83101 7.51195ZM7.50818 6.73178C7.30137 6.52483 7.02082 6.4085 6.72824 6.4084L6.7281 6.8084C6.91459 6.80847 7.09341 6.88261 7.22524 7.01452L7.50818 6.73178ZM6.72824 6.4084C6.43567 6.4083 6.15504 6.52442 5.94808 6.73123L6.23082 7.01417C6.36274 6.88235 6.54161 6.80833 6.7281 6.8084L6.72824 6.4084ZM2.72165 1.94439C2.66155 1.88217 2.58966 1.83254 2.51018 1.79839L2.3523 2.16592C2.38298 2.1791 2.41073 2.19826 2.43393 2.22228L2.72165 1.94439ZM2.51018 1.79839C2.43069 1.76425 2.34521 1.74628 2.2587 1.74553L2.25523 2.14551C2.28862 2.1458 2.32162 2.15274 2.3523 2.16592L2.51018 1.79839ZM2.2587 1.74553C2.1722 1.74477 2.08641 1.76126 2.00635 1.79402L2.15781 2.16423C2.18872 2.15158 2.22183 2.14522 2.25523 2.14551L2.2587 1.74553ZM2.00635 1.79402C1.92628 1.82677 1.85354 1.87515 1.79237 1.93632L2.07521 2.21916C2.09883 2.19555 2.12691 2.17687 2.15781 2.16423L2.00635 1.79402ZM1.79237 1.93632C1.7312 1.99749 1.68283 2.07023 1.65007 2.15029L2.02028 2.30176C2.03293 2.27085 2.0516 2.24277 2.07521 2.21916L1.79237 1.93632ZM1.65007 2.15029C1.61731 2.23036 1.60083 2.31615 1.60158 2.40265L2.00156 2.39917C2.00127 2.36578 2.00764 2.33266 2.02028 2.30176L1.65007 2.15029ZM1.60158 2.40265C1.60233 2.48915 1.6203 2.57464 1.65445 2.65412L2.02197 2.49625C2.00879 2.46556 2.00186 2.43257 2.00156 2.39917L1.60158 2.40265ZM1.65445 2.65412C1.68859 2.73361 1.73822 2.8055 1.80045 2.86559L2.07833 2.57788C2.05431 2.55468 2.03515 2.52693 2.02197 2.49625L1.65445 2.65412ZM1.80045 2.86559C1.92332 2.98427 2.08788 3.04993 2.2587 3.04845L2.25523 2.64846C2.18929 2.64904 2.12576 2.62369 2.07833 2.57788L1.80045 2.86559ZM2.2587 3.04845C2.42952 3.04697 2.59292 2.97845 2.71371 2.85766L2.43087 2.57482C2.38424 2.62144 2.32117 2.64789 2.25523 2.64846L2.2587 3.04845ZM2.71371 2.85766C2.8345 2.73687 2.90302 2.57347 2.9045 2.40265L2.50452 2.39917C2.50395 2.46511 2.4775 2.52819 2.43087 2.57482L2.71371 2.85766ZM2.9045 2.40265C2.90599 2.23183 2.84032 2.06726 2.72165 1.94439L2.43393 2.22228C2.47974 2.26971 2.50509 2.33323 2.50452 2.39917L2.9045 2.40265Z"
        fill="white" mask="url(#path-1-inside-1_271_6773)" />
</svg>