<svg width="22" height="19" viewBox="0 0 22 19" fill="none" xmlns="http://www.w3.org/2000/svg">
<path d="M12.4564 -0.00146484C12.7164 -0.00146484 12.9764 0.0585352 13.2264 0.148535L20.5864 3.19853C21.0756 3.39888 21.4652 3.78531 21.6696 4.27287C21.874 4.76043 21.8765 5.3092 21.6764 5.79854L16.7164 17.7485C16.5698 18.111 16.3203 18.4226 15.9986 18.6447C15.6769 18.8669 15.2972 18.9899 14.9064 18.9985C14.6464 18.9985 14.3764 18.9685 14.1164 18.8485L6.74636 15.7985C6.39064 15.6476 6.08569 15.3978 5.86768 15.0787C5.64966 14.7597 5.52774 14.3848 5.51636 13.9985C5.50636 13.7485 5.55636 13.4585 5.64636 13.1985L10.6464 1.24854C10.7872 0.88224 11.0354 0.566975 11.3583 0.343959C11.6812 0.120943 12.0639 0.000555254 12.4564 -0.00146484ZM8.97636 -0.00146484L5.52636 8.34854V1.99854C5.52636 1.4681 5.73707 0.959394 6.11214 0.584321C6.48722 0.209249 6.99592 -0.00146484 7.52636 -0.00146484M3.51636 1.53854V10.5685L1.08636 4.70854C0.986732 4.4663 0.935907 4.20678 0.936796 3.94486C0.937685 3.68295 0.990271 3.42378 1.09154 3.18223C1.1928 2.94067 1.34076 2.72149 1.52692 2.53724C1.71307 2.35299 1.93377 2.20731 2.17636 2.10854M12.4564 1.96853L7.47636 13.9885L14.8664 17.0485L19.8464 5.03854" fill="#FFDD00"/>
</svg>
